<svg width="369" height="370" viewBox="0 0 369 370" fill="none" xmlns="http://www.w3.org/2000/svg">
<g filter="url(#filter0_d)">
<rect x="206.758" y="31" width="178.397" height="245.051" transform="rotate(44.5 206.758 31)" fill="#FBFDFD"/>
<rect opacity="0.5" x="204.726" y="62.9017" width="136.575" height="8.49509" rx="4.24755" transform="rotate(44.5 204.726 62.9017)" fill="#002033"/>
<rect opacity="0.5" x="194.65" y="73.1558" width="93.446" height="8.49509" rx="4.24755" transform="rotate(44.5 194.65 73.1558)" fill="#002033"/>
<rect opacity="0.5" x="170.375" y="97.8584" width="136.575" height="3.92081" rx="1.96041" transform="rotate(44.5 170.375 97.8584)" fill="#002033"/>
<rect opacity="0.5" x="122.282" y="146.797" width="136.575" height="3.92081" rx="1.96041" transform="rotate(44.5 122.282 146.797)" fill="#002033"/>
<rect opacity="0.5" x="163.504" y="104.85" width="136.575" height="3.92081" rx="1.96041" transform="rotate(44.5 163.504 104.85)" fill="#002033"/>
<rect opacity="0.5" x="115.412" y="153.789" width="136.575" height="3.92081" rx="1.96041" transform="rotate(44.5 115.412 153.789)" fill="#002033"/>
<rect opacity="0.5" x="156.634" y="111.841" width="136.575" height="3.92081" rx="1.96041" transform="rotate(44.5 156.634 111.841)" fill="#002033"/>
<rect opacity="0.5" x="108.542" y="160.78" width="136.575" height="3.92081" rx="1.96041" transform="rotate(44.5 108.542 160.78)" fill="#002033"/>
<rect opacity="0.5" x="149.763" y="118.832" width="136.575" height="3.92081" rx="1.96041" transform="rotate(44.5 149.763 118.832)" fill="#002033"/>
<rect opacity="0.5" x="101.671" y="167.771" width="136.575" height="3.92081" rx="1.96041" transform="rotate(44.5 101.671 167.771)" fill="#002033"/>
<rect opacity="0.5" x="142.893" y="125.823" width="101.941" height="3.92081" rx="1.96041" transform="rotate(44.5 142.893 125.823)" fill="#002033"/>
<rect opacity="0.5" x="94.801" y="174.763" width="62.0795" height="3.92081" rx="1.96041" transform="rotate(44.5 94.801 174.763)" fill="#002033"/>
</g>
<g filter="url(#filter1_d)">
<rect x="160.649" y="31.2451" width="178.397" height="245.051" transform="rotate(27 160.649 31.2451)" fill="#FBFDFD"/>
<rect opacity="0.5" x="168.304" y="62.2814" width="136.575" height="8.49509" rx="4.24755" transform="rotate(27 168.304 62.2814)" fill="#002033"/>
<rect opacity="0.5" x="161.777" y="75.0907" width="93.446" height="8.49509" rx="4.24755" transform="rotate(27 161.777 75.0907)" fill="#002033"/>
<rect opacity="0.5" x="146.054" y="105.95" width="136.575" height="3.92081" rx="1.96041" transform="rotate(27 146.054 105.95)" fill="#002033"/>
<rect opacity="0.5" x="114.904" y="167.086" width="136.575" height="3.92081" rx="1.96041" transform="rotate(27 114.904 167.086)" fill="#002033"/>
<rect opacity="0.5" x="141.604" y="114.683" width="136.575" height="3.92081" rx="1.96041" transform="rotate(27 141.604 114.683)" fill="#002033"/>
<rect opacity="0.5" x="110.454" y="175.819" width="136.575" height="3.92081" rx="1.96041" transform="rotate(27 110.454 175.819)" fill="#002033"/>
<rect opacity="0.5" x="137.154" y="123.417" width="136.575" height="3.92081" rx="1.96041" transform="rotate(27 137.154 123.417)" fill="#002033"/>
<rect opacity="0.5" x="106.003" y="184.553" width="136.575" height="3.92081" rx="1.96041" transform="rotate(27 106.003 184.553)" fill="#002033"/>
<rect opacity="0.5" x="132.704" y="132.151" width="136.575" height="3.92081" rx="1.96041" transform="rotate(27 132.704 132.151)" fill="#002033"/>
<rect opacity="0.5" x="101.553" y="193.286" width="136.575" height="3.92081" rx="1.96041" transform="rotate(27 101.553 193.286)" fill="#002033"/>
<rect opacity="0.5" x="128.254" y="140.884" width="101.941" height="3.92081" rx="1.96041" transform="rotate(27 128.254 140.884)" fill="#002033"/>
<rect opacity="0.5" x="97.1035" y="202.02" width="62.0795" height="3.92081" rx="1.96041" transform="rotate(27 97.1035 202.02)" fill="#002033"/>
</g>
<g filter="url(#filter2_d)">
<rect x="125.15" y="41.4609" width="178.397" height="245.051" transform="rotate(13 125.15 41.4609)" fill="#FBFDFD"/>
<rect opacity="0.5" x="140.086" y="69.7235" width="136.575" height="8.49509" rx="4.24755" transform="rotate(13 140.086 69.7235)" fill="#002033"/>
<rect opacity="0.5" x="136.852" y="83.7313" width="93.446" height="8.49509" rx="4.24755" transform="rotate(13 136.852 83.7313)" fill="#002033"/>
<rect opacity="0.5" x="129.061" y="117.478" width="136.575" height="3.92081" rx="1.96041" transform="rotate(13 129.061 117.478)" fill="#002033"/>
<rect opacity="0.5" x="113.626" y="184.333" width="136.575" height="3.92081" rx="1.96041" transform="rotate(13 113.626 184.333)" fill="#002033"/>
<rect opacity="0.5" x="126.856" y="127.028" width="136.575" height="3.92081" rx="1.96041" transform="rotate(13 126.856 127.028)" fill="#002033"/>
<rect opacity="0.5" x="111.421" y="193.884" width="136.575" height="3.92081" rx="1.96041" transform="rotate(13 111.421 193.884)" fill="#002033"/>
<rect opacity="0.5" x="124.651" y="136.579" width="136.575" height="3.92081" rx="1.96041" transform="rotate(13 124.651 136.579)" fill="#002033"/>
<rect opacity="0.5" x="109.216" y="203.435" width="136.575" height="3.92081" rx="1.96041" transform="rotate(13 109.216 203.435)" fill="#002033"/>
<rect opacity="0.5" x="122.446" y="146.13" width="136.575" height="3.92081" rx="1.96041" transform="rotate(13 122.446 146.13)" fill="#002033"/>
<rect opacity="0.5" x="107.011" y="212.986" width="136.575" height="3.92081" rx="1.96041" transform="rotate(13 107.011 212.986)" fill="#002033"/>
<rect opacity="0.5" x="120.241" y="155.681" width="101.941" height="3.92081" rx="1.96041" transform="rotate(13 120.241 155.681)" fill="#002033"/>
<rect opacity="0.5" x="104.806" y="222.536" width="62.0795" height="3.92081" rx="1.96041" transform="rotate(13 104.806 222.536)" fill="#002033"/>
</g>
<g filter="url(#filter3_d)">
<rect x="95.3013" y="58.3859" width="178.397" height="245.051" fill="#FBFDFD"/>
<rect opacity="0.5" x="116.212" y="82.5643" width="136.575" height="8.49509" rx="4.24755" fill="#002033"/>
<rect opacity="0.5" x="116.212" y="96.9406" width="93.446" height="8.49509" rx="4.24755" fill="#002033"/>
<rect opacity="0.5" x="116.212" y="131.574" width="136.575" height="3.92081" rx="1.96041" fill="#002033"/>
<rect opacity="0.5" x="116.212" y="200.188" width="136.575" height="3.92081" rx="1.96041" fill="#002033"/>
<rect opacity="0.5" x="116.212" y="141.376" width="136.575" height="3.92081" rx="1.96041" fill="#002033"/>
<rect opacity="0.5" x="116.212" y="209.991" width="136.575" height="3.92081" rx="1.96041" fill="#002033"/>
<rect opacity="0.5" x="116.212" y="151.178" width="136.575" height="3.92081" rx="1.96041" fill="#002033"/>
<rect opacity="0.5" x="116.212" y="219.793" width="136.575" height="3.92081" rx="1.96041" fill="#002033"/>
<rect opacity="0.5" x="116.212" y="160.98" width="136.575" height="3.92081" rx="1.96041" fill="#002033"/>
<rect opacity="0.5" x="116.212" y="229.595" width="136.575" height="3.92081" rx="1.96041" fill="#002033"/>
<rect opacity="0.5" x="116.212" y="170.782" width="101.941" height="3.92081" rx="1.96041" fill="#002033"/>
<rect opacity="0.5" x="116.212" y="239.397" width="62.0795" height="3.92081" rx="1.96041" fill="#002033"/>
</g>
<defs>
<filter id="filter0_d" x="0" y="0" width="369" height="369.823" filterUnits="userSpaceOnUse" color-interpolation-filters="sRGB">
<feFlood flood-opacity="0" result="BackgroundImageFix"/>
<feColorMatrix in="SourceAlpha" type="matrix" values="0 0 0 0 0 0 0 0 0 0 0 0 0 0 0 0 0 0 127 0"/>
<feOffset dy="4"/>
<feGaussianBlur stdDeviation="17.5"/>
<feColorMatrix type="matrix" values="0 0 0 0 0 0 0 0 0 0 0 0 0 0 0 0 0 0 0.15 0"/>
<feBlend mode="normal" in2="BackgroundImageFix" result="effect1_dropShadow"/>
<feBlend mode="normal" in="SourceGraphic" in2="effect1_dropShadow" result="shape"/>
</filter>
<filter id="filter1_d" x="14.3979" y="0.245117" width="340.203" height="369.332" filterUnits="userSpaceOnUse" color-interpolation-filters="sRGB">
<feFlood flood-opacity="0" result="BackgroundImageFix"/>
<feColorMatrix in="SourceAlpha" type="matrix" values="0 0 0 0 0 0 0 0 0 0 0 0 0 0 0 0 0 0 127 0"/>
<feOffset dy="4"/>
<feGaussianBlur stdDeviation="17.5"/>
<feColorMatrix type="matrix" values="0 0 0 0 0 0 0 0 0 0 0 0 0 0 0 0 0 0 0.15 0"/>
<feBlend mode="normal" in2="BackgroundImageFix" result="effect1_dropShadow"/>
<feBlend mode="normal" in="SourceGraphic" in2="effect1_dropShadow" result="shape"/>
</filter>
<filter id="filter2_d" x="35.0251" y="10.4609" width="298.949" height="348.901" filterUnits="userSpaceOnUse" color-interpolation-filters="sRGB">
<feFlood flood-opacity="0" result="BackgroundImageFix"/>
<feColorMatrix in="SourceAlpha" type="matrix" values="0 0 0 0 0 0 0 0 0 0 0 0 0 0 0 0 0 0 127 0"/>
<feOffset dy="4"/>
<feGaussianBlur stdDeviation="17.5"/>
<feColorMatrix type="matrix" values="0 0 0 0 0 0 0 0 0 0 0 0 0 0 0 0 0 0 0.15 0"/>
<feBlend mode="normal" in2="BackgroundImageFix" result="effect1_dropShadow"/>
<feBlend mode="normal" in="SourceGraphic" in2="effect1_dropShadow" result="shape"/>
</filter>
<filter id="filter3_d" x="60.3013" y="27.3859" width="248.397" height="315.051" filterUnits="userSpaceOnUse" color-interpolation-filters="sRGB">
<feFlood flood-opacity="0" result="BackgroundImageFix"/>
<feColorMatrix in="SourceAlpha" type="matrix" values="0 0 0 0 0 0 0 0 0 0 0 0 0 0 0 0 0 0 127 0"/>
<feOffset dy="4"/>
<feGaussianBlur stdDeviation="17.5"/>
<feColorMatrix type="matrix" values="0 0 0 0 0 0 0 0 0 0 0 0 0 0 0 0 0 0 0.15 0"/>
<feBlend mode="normal" in2="BackgroundImageFix" result="effect1_dropShadow"/>
<feBlend mode="normal" in="SourceGraphic" in2="effect1_dropShadow" result="shape"/>
</filter>
</defs>
</svg>
