<svg xmlns="http://www.w3.org/2000/svg" width="343" height="346" viewBox="0 0 343 346"><g><g><g transform="rotate(44.5 175 170)"><g><path fill="#fbfdfd" d="M85.3 47.39h178.397v245.051H85.3z"/></g><g opacity=".5"><path fill="#002033" d="M106.21 75.808a4.248 4.248 0 0 1 4.248-4.248h128.079a4.248 4.248 0 0 1 0 8.495h-128.08a4.248 4.248 0 0 1-4.247-4.247z"/></g><g opacity=".5"><path fill="#002033" d="M106.21 90.188a4.248 4.248 0 0 1 4.248-4.248h84.95a4.248 4.248 0 1 1 0 8.495h-84.95a4.248 4.248 0 0 1-4.248-4.247z"/></g><g opacity=".5"><path fill="#002033" d="M106.21 122.53a1.96 1.96 0 0 1 1.96-1.96h132.655a1.96 1.96 0 0 1 0 3.92H108.17a1.96 1.96 0 0 1-1.96-1.96z"/></g><g opacity=".5"><path fill="#002033" d="M106.21 191.15a1.96 1.96 0 0 1 1.96-1.96h132.655a1.96 1.96 0 0 1 0 3.92H108.17a1.96 1.96 0 0 1-1.96-1.96z"/></g><g opacity=".5"><path fill="#002033" d="M106.21 132.34a1.96 1.96 0 0 1 1.96-1.96h132.655a1.96 1.96 0 0 1 0 3.92H108.17a1.96 1.96 0 0 1-1.96-1.96z"/></g><g opacity=".5"><path fill="#002033" d="M106.21 200.95a1.96 1.96 0 0 1 1.96-1.96h132.655a1.96 1.96 0 0 1 0 3.92H108.17a1.96 1.96 0 0 1-1.96-1.96z"/></g><g opacity=".5"><path fill="#002033" d="M106.21 142.14a1.96 1.96 0 0 1 1.96-1.96h132.655a1.96 1.96 0 0 1 0 3.92H108.17a1.96 1.96 0 0 1-1.96-1.96z"/></g><g opacity=".5"><path fill="#002033" d="M106.21 210.75a1.96 1.96 0 0 1 1.96-1.96h132.655a1.96 1.96 0 0 1 0 3.92H108.17a1.96 1.96 0 0 1-1.96-1.96z"/></g><g opacity=".5"><path fill="#002033" d="M106.21 151.94a1.96 1.96 0 0 1 1.96-1.96h132.655a1.96 1.96 0 0 1 0 3.92H108.17a1.96 1.96 0 0 1-1.96-1.96z"/></g><g opacity=".5"><path fill="#002033" d="M106.21 220.55a1.96 1.96 0 0 1 1.96-1.96h132.655a1.96 1.96 0 0 1 0 3.92H108.17a1.96 1.96 0 0 1-1.96-1.96z"/></g><g opacity=".5"><path fill="#002033" d="M106.21 161.74a1.96 1.96 0 0 1 1.96-1.96h98.02a1.96 1.96 0 0 1 0 3.92h-98.02a1.96 1.96 0 0 1-1.96-1.96z"/></g><g opacity=".5"><path fill="#002033" d="M106.21 230.36a1.96 1.96 0 0 1 1.96-1.96h58.16a1.96 1.96 0 1 1 0 3.92h-58.16a1.96 1.96 0 0 1-1.96-1.96z"/></g></g><g transform="rotate(27 174.5 170)"><g><path fill="#fbfdfd" d="M85.3 47.39h178.397v245.051H85.3z"/></g><g opacity=".5"><path fill="#002033" d="M106.21 75.808a4.248 4.248 0 0 1 4.248-4.248h128.079a4.248 4.248 0 0 1 0 8.495h-128.08a4.248 4.248 0 0 1-4.247-4.247z"/></g><g opacity=".5"><path fill="#002033" d="M106.21 90.188a4.248 4.248 0 0 1 4.248-4.248h84.95a4.248 4.248 0 1 1 0 8.495h-84.95a4.248 4.248 0 0 1-4.248-4.247z"/></g><g opacity=".5"><path fill="#002033" d="M106.21 122.53a1.96 1.96 0 0 1 1.96-1.96h132.655a1.96 1.96 0 0 1 0 3.92H108.17a1.96 1.96 0 0 1-1.96-1.96z"/></g><g opacity=".5"><path fill="#002033" d="M106.21 191.15a1.96 1.96 0 0 1 1.96-1.96h132.655a1.96 1.96 0 0 1 0 3.92H108.17a1.96 1.96 0 0 1-1.96-1.96z"/></g><g opacity=".5"><path fill="#002033" d="M106.21 132.34a1.96 1.96 0 0 1 1.96-1.96h132.655a1.96 1.96 0 0 1 0 3.92H108.17a1.96 1.96 0 0 1-1.96-1.96z"/></g><g opacity=".5"><path fill="#002033" d="M106.21 200.95a1.96 1.96 0 0 1 1.96-1.96h132.655a1.96 1.96 0 0 1 0 3.92H108.17a1.96 1.96 0 0 1-1.96-1.96z"/></g><g opacity=".5"><path fill="#002033" d="M106.21 142.14a1.96 1.96 0 0 1 1.96-1.96h132.655a1.96 1.96 0 0 1 0 3.92H108.17a1.96 1.96 0 0 1-1.96-1.96z"/></g><g opacity=".5"><path fill="#002033" d="M106.21 210.75a1.96 1.96 0 0 1 1.96-1.96h132.655a1.96 1.96 0 0 1 0 3.92H108.17a1.96 1.96 0 0 1-1.96-1.96z"/></g><g opacity=".5"><path fill="#002033" d="M106.21 151.94a1.96 1.96 0 0 1 1.96-1.96h132.655a1.96 1.96 0 0 1 0 3.92H108.17a1.96 1.96 0 0 1-1.96-1.96z"/></g><g opacity=".5"><path fill="#002033" d="M106.21 220.55a1.96 1.96 0 0 1 1.96-1.96h132.655a1.96 1.96 0 0 1 0 3.92H108.17a1.96 1.96 0 0 1-1.96-1.96z"/></g><g opacity=".5"><path fill="#002033" d="M106.21 161.74a1.96 1.96 0 0 1 1.96-1.96h98.02a1.96 1.96 0 0 1 0 3.92h-98.02a1.96 1.96 0 0 1-1.96-1.96z"/></g><g opacity=".5"><path fill="#002033" d="M106.21 230.36a1.96 1.96 0 0 1 1.96-1.96h58.16a1.96 1.96 0 1 1 0 3.92h-58.16a1.96 1.96 0 0 1-1.96-1.96z"/></g></g><g transform="rotate(13 174.5 170)"><g><path fill="#fbfdfd" d="M85.3 47.39h178.397v245.051H85.3z"/></g><g opacity=".5"><path fill="#002033" d="M106.21 75.808a4.248 4.248 0 0 1 4.248-4.248h128.079a4.248 4.248 0 0 1 0 8.495h-128.08a4.248 4.248 0 0 1-4.247-4.247z"/></g><g opacity=".5"><path fill="#002033" d="M106.21 90.188a4.248 4.248 0 0 1 4.248-4.248h84.95a4.248 4.248 0 1 1 0 8.495h-84.95a4.248 4.248 0 0 1-4.248-4.247z"/></g><g opacity=".5"><path fill="#002033" d="M106.21 122.53a1.96 1.96 0 0 1 1.96-1.96h132.655a1.96 1.96 0 0 1 0 3.92H108.17a1.96 1.96 0 0 1-1.96-1.96z"/></g><g opacity=".5"><path fill="#002033" d="M106.21 191.15a1.96 1.96 0 0 1 1.96-1.96h132.655a1.96 1.96 0 0 1 0 3.92H108.17a1.96 1.96 0 0 1-1.96-1.96z"/></g><g opacity=".5"><path fill="#002033" d="M106.21 132.34a1.96 1.96 0 0 1 1.96-1.96h132.655a1.96 1.96 0 0 1 0 3.92H108.17a1.96 1.96 0 0 1-1.96-1.96z"/></g><g opacity=".5"><path fill="#002033" d="M106.21 200.95a1.96 1.96 0 0 1 1.96-1.96h132.655a1.96 1.96 0 0 1 0 3.92H108.17a1.96 1.96 0 0 1-1.96-1.96z"/></g><g opacity=".5"><path fill="#002033" d="M106.21 142.14a1.96 1.96 0 0 1 1.96-1.96h132.655a1.96 1.96 0 0 1 0 3.92H108.17a1.96 1.96 0 0 1-1.96-1.96z"/></g><g opacity=".5"><path fill="#002033" d="M106.21 210.75a1.96 1.96 0 0 1 1.96-1.96h132.655a1.96 1.96 0 0 1 0 3.92H108.17a1.96 1.96 0 0 1-1.96-1.96z"/></g><g opacity=".5"><path fill="#002033" d="M106.21 151.94a1.96 1.96 0 0 1 1.96-1.96h132.655a1.96 1.96 0 0 1 0 3.92H108.17a1.96 1.96 0 0 1-1.96-1.96z"/></g><g opacity=".5"><path fill="#002033" d="M106.21 220.55a1.96 1.96 0 0 1 1.96-1.96h132.655a1.96 1.96 0 0 1 0 3.92H108.17a1.96 1.96 0 0 1-1.96-1.96z"/></g><g opacity=".5"><path fill="#002033" d="M106.21 161.74a1.96 1.96 0 0 1 1.96-1.96h98.02a1.96 1.96 0 0 1 0 3.92h-98.02a1.96 1.96 0 0 1-1.96-1.96z"/></g><g opacity=".5"><path fill="#002033" d="M106.21 230.36a1.96 1.96 0 0 1 1.96-1.96h58.16a1.96 1.96 0 1 1 0 3.92h-58.16a1.96 1.96 0 0 1-1.96-1.96z"/></g></g><g><g><path fill="#fbfdfd" d="M85.3 47.39h178.397v245.051H85.3z"/></g><g opacity=".5"><path fill="#002033" d="M106.21 75.808a4.248 4.248 0 0 1 4.248-4.248h128.079a4.248 4.248 0 0 1 0 8.495h-128.08a4.248 4.248 0 0 1-4.247-4.247z"/></g><g opacity=".5"><path fill="#002033" d="M106.21 90.188a4.248 4.248 0 0 1 4.248-4.248h84.95a4.248 4.248 0 1 1 0 8.495h-84.95a4.248 4.248 0 0 1-4.248-4.247z"/></g><g opacity=".5"><path fill="#002033" d="M106.21 122.53a1.96 1.96 0 0 1 1.96-1.96h132.655a1.96 1.96 0 0 1 0 3.92H108.17a1.96 1.96 0 0 1-1.96-1.96z"/></g><g opacity=".5"><path fill="#002033" d="M106.21 191.15a1.96 1.96 0 0 1 1.96-1.96h132.655a1.96 1.96 0 0 1 0 3.92H108.17a1.96 1.96 0 0 1-1.96-1.96z"/></g><g opacity=".5"><path fill="#002033" d="M106.21 132.34a1.96 1.96 0 0 1 1.96-1.96h132.655a1.96 1.96 0 0 1 0 3.92H108.17a1.96 1.96 0 0 1-1.96-1.96z"/></g><g opacity=".5"><path fill="#002033" d="M106.21 200.95a1.96 1.96 0 0 1 1.96-1.96h132.655a1.96 1.96 0 0 1 0 3.92H108.17a1.96 1.96 0 0 1-1.96-1.96z"/></g><g opacity=".5"><path fill="#002033" d="M106.21 142.14a1.96 1.96 0 0 1 1.96-1.96h132.655a1.96 1.96 0 0 1 0 3.92H108.17a1.96 1.96 0 0 1-1.96-1.96z"/></g><g opacity=".5"><path fill="#002033" d="M106.21 210.75a1.96 1.96 0 0 1 1.96-1.96h132.655a1.96 1.96 0 0 1 0 3.92H108.17a1.96 1.96 0 0 1-1.96-1.96z"/></g><g opacity=".5"><path fill="#002033" d="M106.21 151.94a1.96 1.96 0 0 1 1.96-1.96h132.655a1.96 1.96 0 0 1 0 3.92H108.17a1.96 1.96 0 0 1-1.96-1.96z"/></g><g opacity=".5"><path fill="#002033" d="M106.21 220.55a1.96 1.96 0 0 1 1.96-1.96h132.655a1.96 1.96 0 0 1 0 3.92H108.17a1.96 1.96 0 0 1-1.96-1.96z"/></g><g opacity=".5"><path fill="#002033" d="M106.21 161.74a1.96 1.96 0 0 1 1.96-1.96h98.02a1.96 1.96 0 0 1 0 3.92h-98.02a1.96 1.96 0 0 1-1.96-1.96z"/></g><g opacity=".5"><path fill="#002033" d="M106.21 230.36a1.96 1.96 0 0 1 1.96-1.96h58.16a1.96 1.96 0 1 1 0 3.92h-58.16a1.96 1.96 0 0 1-1.96-1.96z"/></g></g></g></g></svg>