<svg width="268" height="268" viewBox="0 0 268 268" fill="none" xmlns="http://www.w3.org/2000/svg">
<path d="M136.607 78.0765H120.904C120.391 56.8721 102.976 39.7818 81.6562 39.7818C60.3367 39.7818 42.9219 56.8721 42.4089 78.0765H26.7058C27.2188 48.2144 51.6685 24.0787 81.6562 24.0787C111.644 24.0787 136.094 48.2144 136.607 78.0765Z" fill="#81E885"/>
<path d="M27.4387 88.5453C40.9842 171.943 40.119 167.108 40.5403 168.197C43.1942 164.831 46.2406 160.968 49.7267 156.54C61.6757 141.371 82.4054 138.129 98.1289 147.118C109.179 153.428 113.475 156.636 121.961 157.367L135.727 88.5453H27.4387Z" fill="#81E885"/>
<path d="M224.706 18.1383L206.181 100.349L190.865 96.8998L209.39 14.6836L224.706 18.1383Z" fill="#0AA3FF"/>
<path d="M231.792 22.4169L201.155 15.5122C196.924 14.559 194.268 10.3569 195.221 6.12645C196.175 1.89603 200.377 -0.758318 204.607 0.193291L235.245 7.09795C239.475 8.05113 242.131 12.2533 241.178 16.4837C240.225 20.7125 236.025 23.37 231.792 22.4169Z" fill="#0085D6"/>
<path d="M216.969 100.097L181.224 92.0415C165.699 88.545 150.31 98.2756 146.813 113.796L137.59 154.702C140.701 153.313 142.101 152.227 149.551 147.259C163.852 137.728 182.736 139.121 195.467 150.352C210.671 163.756 221.851 173.521 228.297 179.199C229.138 177.735 228.326 180.658 238.723 134.513C242.215 119.025 232.453 103.589 216.969 100.097Z" fill="#0AA3FF"/>
<path d="M197.199 148.39C183.495 136.309 163.307 134.948 148.101 145.082L140.794 149.955C131.565 156.105 119.846 156.513 110.214 151.007L99.4265 144.846C82.0798 134.932 60.0537 139.198 47.6692 154.922C19.1153 191.188 20.3229 189.172 19.812 191.578H243.895C243.185 188.156 245.06 190.577 197.199 148.39Z" fill="#FCCCC5"/>
<path d="M260.147 268H7.85153C3.51539 268 0 264.484 0 260.148V196.813C0 192.477 3.51539 188.961 7.85153 188.961H260.147C264.483 188.961 267.999 192.477 267.999 196.813V260.148C267.999 264.484 264.483 268 260.147 268Z" fill="#F55D47"/>
<path d="M136.617 75.46H26.6953C22.3592 75.46 18.8438 78.9754 18.8438 83.3115C18.8438 87.6477 22.3592 91.1631 26.6953 91.1631H136.617C140.953 91.1631 144.469 87.6477 144.469 83.3115C144.469 78.9754 140.953 75.46 136.617 75.46Z" fill="#5DC983"/>
</svg>
