<svg width="88" height="63" viewBox="0 0 88 63" fill="none" xmlns="http://www.w3.org/2000/svg">
<rect width="88" height="63" rx="5" fill="white"/>
<rect x="0.5" y="0.5" width="87" height="62" rx="4.5" stroke="#002033" stroke-opacity="0.1"/>
<path d="M68.7213 47.3472C67.6728 48.606 66.1194 49.3342 64.4811 49.3348H22.5212C20.8829 49.3342 19.3295 48.606 18.281 47.3472L38.5322 30.4749L40.6302 31.9104C42.3585 33.1029 44.6439 33.1029 46.3721 31.9104L48.4702 30.4749L68.7213 47.3472Z" fill="#188BD2"/>
<path d="M69.0301 16.4073L48.4698 30.4749L46.3718 31.9104C44.6436 33.1029 42.3582 33.1029 40.6299 31.9104L38.5319 30.4749L17.9717 16.3852C19.0063 14.8933 20.7055 14.0025 22.521 14.0001H64.4809C66.3046 13.9904 68.0122 14.894 69.0301 16.4073Z" fill="#64BEF6"/>
<path d="M38.5321 30.4749L18.2809 47.3472C17.4521 46.3565 16.9985 45.1055 17.0001 43.8138V19.5212C16.9934 18.4008 17.3328 17.3056 17.9718 16.3853L38.5321 30.4749Z" fill="#21A3F3"/>
<path d="M70.002 19.5212V43.8138C70.0035 45.1055 69.55 46.3565 68.7212 47.3472L48.47 30.4749L69.0303 16.4073C69.6661 17.321 70.0053 18.408 70.002 19.5212Z" fill="#21A3F3"/>
</svg>
