<svg width="24" height="39" viewBox="0 0 24 39" fill="none" xmlns="http://www.w3.org/2000/svg">
<path d="M6.78318 1.12704C5.19649 -0.410069 2.66415 -0.369873 1.12704 1.21682C-0.410069 2.80351 -0.369873 5.33585 1.21682 6.87296L6.78318 1.12704ZM20 19.5L22.7832 22.373C23.561 21.6195 24 20.5829 24 19.5C24 18.4171 23.561 17.3805 22.7832 16.627L20 19.5ZM1.21682 32.127C-0.369873 33.6641 -0.410069 36.1965 1.12704 37.7832C2.66415 39.3699 5.19649 39.4101 6.78318 37.873L1.21682 32.127ZM1.21682 6.87296L17.2168 22.373L22.7832 16.627L6.78318 1.12704L1.21682 6.87296ZM17.2168 16.627L1.21682 32.127L6.78318 37.873L22.7832 22.373L17.2168 16.627Z" fill="#002033"/>
</svg>
