<svg width="32" height="45" viewBox="0 0 32 45" fill="none" xmlns="http://www.w3.org/2000/svg">
<path d="M1 19.7546V2C1 1.44772 1.44772 1 2 1H21.1167C21.3861 1 21.6441 1.10872 21.8323 1.30154L30.7157 10.4036C30.898 10.5904 31 10.8411 31 11.1021V19.7546M31 39.4436V43C31 43.5523 30.5523 44 30 44H2C1.44772 44 1 43.5523 1 43V39.4436" stroke="#002033" stroke-width="1.5"/>
<path d="M7 26.7285H7.73165L7.93119 27.5232H7.98441C8.18838 27.2141 8.45 26.9801 8.76927 26.8212C9.0974 26.6534 9.46988 26.5695 9.8867 26.5695C10.7736 26.5695 11.4343 26.83 11.8688 27.351C12.3034 27.872 12.5206 28.7241 12.5206 29.9073C12.5206 30.4636 12.4453 30.9669 12.2945 31.4172C12.1526 31.8587 11.9486 32.234 11.6826 32.543C11.4165 32.8521 11.0928 33.0905 10.7115 33.2583C10.339 33.426 9.92218 33.5099 9.46101 33.5099C9.13288 33.5099 8.87126 33.4879 8.67615 33.4437C8.48991 33.4084 8.28593 33.3422 8.06422 33.245V36H7V26.7285ZM9.68716 27.4967C9.23487 27.4967 8.87569 27.6159 8.60964 27.8543C8.35245 28.0839 8.17064 28.4371 8.06422 28.9139V32.1987C8.22385 32.3223 8.40566 32.4194 8.60964 32.4901C8.81361 32.5519 9.0841 32.5828 9.4211 32.5828C10.033 32.5828 10.5164 32.3576 10.8711 31.9073C11.2347 31.4481 11.4165 30.777 11.4165 29.894C11.4165 29.532 11.3855 29.2053 11.3234 28.9139C11.2613 28.6137 11.1593 28.362 11.0174 28.1589C10.8844 27.947 10.707 27.7837 10.4853 27.6689C10.2725 27.5541 10.0064 27.4967 9.68716 27.4967Z" fill="black"/>
<path d="M19.3053 31.0728C19.3053 31.5232 19.3097 31.9338 19.3186 32.3046C19.3274 32.6667 19.3674 33.0243 19.4383 33.3775H18.7199L18.4539 32.4371H18.4007C18.2233 32.7461 17.9661 33.0022 17.6291 33.2053C17.2921 33.4084 16.8975 33.5099 16.4452 33.5099C15.5583 33.5099 14.8976 33.2318 14.4631 32.6755C14.0374 32.1192 13.8245 31.2494 13.8245 30.0662C13.8245 28.936 14.0906 28.0795 14.6227 27.4967C15.1637 26.9051 15.9042 26.6093 16.8443 26.6093C17.1724 26.6093 17.4296 26.6269 17.6158 26.6623C17.8109 26.6976 18.0193 26.755 18.241 26.8344V24.0795H19.3053V31.0728ZM16.6181 32.5828C17.0704 32.5828 17.4296 32.468 17.6956 32.2384C17.9617 32 18.1435 31.6424 18.241 31.1656V27.8808C18.0814 27.7572 17.8996 27.6689 17.6956 27.6159C17.4917 27.5629 17.2212 27.5364 16.8842 27.5364C16.2722 27.5364 15.7933 27.7395 15.4475 28.1457C15.1016 28.543 14.9287 29.1832 14.9287 30.0662C14.9287 30.4283 14.9553 30.7638 15.0085 31.0728C15.0706 31.3819 15.1681 31.6468 15.3011 31.8676C15.4342 32.0883 15.6071 32.2649 15.8199 32.3974C16.0417 32.521 16.3077 32.5828 16.6181 32.5828Z" fill="black"/>
<path d="M20.6234 26.7285H21.661V26.3576C21.661 25.9514 21.692 25.5982 21.7541 25.298C21.8251 24.9978 21.9359 24.755 22.0867 24.5695C22.2375 24.3753 22.4326 24.234 22.672 24.1457C22.9115 24.0486 23.2086 24 23.5633 24C23.8471 24 24.0954 24.0177 24.3083 24.053C24.53 24.0883 24.7605 24.1545 25 24.2517L24.7605 25.1391C24.5566 25.0508 24.3615 24.9934 24.1752 24.9669C23.9979 24.9404 23.8294 24.9272 23.6697 24.9272C23.4391 24.9272 23.2573 24.9625 23.1243 25.0331C23.0002 25.1038 22.907 25.2097 22.845 25.351C22.7917 25.4834 22.7563 25.6512 22.7385 25.8543C22.7297 26.0486 22.7252 26.2781 22.7252 26.543V26.7285H24.4945V27.6556H22.7252V33.351H21.661V27.6556H20.6234V26.7285Z" fill="black"/>
</svg>
