<svg width="121" height="119" viewBox="0 0 121 119" fill="none" xmlns="http://www.w3.org/2000/svg">
<circle opacity="0.05" cx="42.6893" cy="76.0491" r="42.6893" fill="#002033"/>
<path d="M107.124 16.6905L106.532 6.68466C106.426 5.03465 105.051 3.76541 103.38 3.87118C101.731 3.97695 100.483 5.37311 100.568 7.02312L100.737 9.96352C92.1076 3.51156 81.6384 0 70.6405 0C57.1892 0 44.5416 5.24619 35.0453 14.7443C33.8821 15.9078 33.8821 17.7905 35.0453 18.9751C36.6527 20.5828 38.6831 19.5674 39.2753 18.9751C47.6506 10.5981 58.7966 5.96542 70.6617 5.96542C80.0945 5.96542 89.062 8.88467 96.5491 14.3001L93.9688 14.4693C92.3191 14.5751 91.0713 15.9713 91.1559 17.6213C91.2405 19.2078 92.5729 20.4347 94.138 20.4347C94.2014 20.4347 104.311 19.8424 104.311 19.8424C105.961 19.7367 107.209 18.3405 107.124 16.6905Z" fill="#0085D6"/>
<path d="M59.1562 93.2256C37.8794 87.5352 24.3858 67.2062 26.5008 45.9676L27.9178 48.1042C28.4889 48.9715 30.3078 50.008 32.0421 48.9503C33.438 48.083 33.7975 46.2003 32.8881 44.8253L27.3891 36.4483C26.945 35.7926 26.2682 35.3272 25.5068 35.1579C24.7242 35.0099 23.9205 35.1579 23.2649 35.581L14.9107 41.081C13.536 41.9907 13.1553 43.8311 14.0647 45.2061C14.9741 46.5811 16.8142 46.9618 18.1889 46.0522L20.6635 44.4234C17.7659 68.8774 33.1842 92.4429 57.6122 98.9795C57.866 99.0429 60.5097 99.3602 61.2711 96.8641C61.7576 95.2987 60.7635 93.6487 59.1562 93.2256Z" fill="#0085D6"/>
<path d="M119.285 37.3157C118.862 35.7292 117.212 34.7772 115.626 35.2003C114.04 35.6234 113.088 37.2734 113.511 38.8599C119.201 60.1408 108.372 82.0141 88.914 90.793L90.0561 88.4872C90.7963 87.0064 90.2041 85.2295 88.7236 84.4891C87.2431 83.7487 85.4454 84.341 84.7263 85.8218L80.2425 94.7699C79.5023 96.2507 80.0945 98.0276 81.575 98.768L90.5214 103.253C90.9444 103.464 93.3343 103.993 94.5187 101.92C95.3435 100.481 94.6667 98.6622 93.1862 97.9218L90.5002 96.568C113.131 86.8795 125.82 61.7697 119.285 37.3157Z" fill="#0085D6"/>
<path d="M56.5283 60.5194L61.8283 55.2053C63.8941 53.1398 67.2327 50.2121 67.2327 45.9407C67.2327 43.2737 65.1043 37.3179 57.6968 37.3179C52.063 37.3179 48.3071 41.4889 46.9299 43.5344L52.1673 46.5223C53.8157 43.9956 55.5685 42.7322 57.4047 42.7322C60.9728 42.7322 60.8476 45.0985 60.8476 46.041C60.8476 48.5276 57.7594 51.315 56.0276 53.0195L47.4307 61.4819V66.1543H68.109V60.5194H56.5283Z" fill="#F55D47"/>
<path d="M89.9767 53.962V49.049H83.696V53.962H79.5437L89.4759 37.9596H82.3606L71.9067 54.6037V59.3964H83.696V66.1343H89.9767V59.3964H93.2944V53.962H89.9767Z" fill="#F55D47"/>
</svg>
