<svg width="127" height="94" viewBox="0 0 127 94" fill="none" xmlns="http://www.w3.org/2000/svg">
<circle opacity="0.05" cx="42.6893" cy="51.0491" r="42.6893" fill="#002033"/>
<path d="M126.547 33.5782C125.602 32.2032 102.893 0 66.9955 0C36.1921 0 8.7436 32.0183 7.58866 33.3832C6.80378 34.3132 6.80378 35.6781 7.58866 36.613C8.7436 37.9779 36.1921 69.9962 66.9955 69.9962C97.7988 69.9962 125.247 37.9779 126.402 36.613C127.127 35.7531 127.192 34.5082 126.547 33.5782ZM66.9955 64.9966C42.3019 64.9966 18.823 41.4479 12.8585 34.9982C18.8132 28.5437 42.267 4.99988 66.9955 4.99988C95.8888 4.99988 116.283 28.5137 121.262 34.8632C115.513 41.1078 91.899 64.9966 66.9955 64.9966Z" fill="#0085D6"/>
<path d="M66.9956 14.9995C55.9663 14.9995 46.9968 23.969 46.9968 34.9983C46.9968 46.0276 55.9663 54.9972 66.9956 54.9972C78.025 54.9972 86.9945 46.0276 86.9945 34.9983C86.9945 23.969 78.025 14.9995 66.9956 14.9995ZM66.9956 49.9977C58.7262 49.9977 51.9965 43.268 51.9965 34.9986C51.9965 26.7291 58.7262 19.9994 66.9956 19.9994C75.2651 19.9994 81.9948 26.7291 81.9948 34.9986C81.9948 43.268 75.2651 49.9977 66.9956 49.9977Z" fill="#F55D47"/>
</svg>
