<svg width="1920" height="805" viewBox="0 0 1920 805" fill="none" xmlns="http://www.w3.org/2000/svg">
<mask id="mask0" mask-type="alpha" maskUnits="userSpaceOnUse" x="0" y="0" width="1920" height="805">
<rect width="1920" height="805" fill="white"/>
</mask>
<g mask="url(#mask0)">
<path opacity="0.15" d="M1726.79 630.768L1726.78 630.766L1669.12 573.055C1669.12 573.055 1669.12 573.055 1669.12 573.054C1663.38 567.317 1653.31 567.313 1647.56 573.054C1647.56 573.055 1647.56 573.055 1647.56 573.055L1599.85 620.802L1599.85 620.802C1596.97 623.684 1595.39 627.509 1595.39 631.59C1595.39 635.671 1596.97 639.496 1599.85 642.377L1599.85 642.378L1647.56 690.125L1648.8 691.361L1647.56 692.598L1644.64 695.53L1644.64 695.531C1642.99 697.182 1640.78 698.099 1638.44 698.099H1638.44C1636.1 698.099 1633.88 697.183 1632.23 695.526L1632.23 695.526L1618.32 681.605C1618.31 681.605 1618.31 681.604 1618.31 681.604C1617.05 680.342 1615.02 680.342 1613.75 681.604C1613.75 681.604 1613.75 681.605 1613.75 681.605L1586.38 708.999L1586.38 709C1585.11 710.263 1585.11 712.305 1586.38 713.568L1586.38 713.568C1587.01 714.198 1587.83 714.513 1588.66 714.513C1589.49 714.513 1590.31 714.198 1590.94 713.568L1614.8 689.697L1616.03 688.459L1617.27 689.697L1627.66 700.094C1627.66 700.094 1627.66 700.094 1627.66 700.094C1630.55 702.976 1634.36 704.559 1638.44 704.559H1638.44H1638.44H1638.44H1638.44H1638.44H1638.44H1638.44H1638.44H1638.44H1638.44H1638.44H1638.44H1638.44H1638.44H1638.44H1638.44H1638.44H1638.44H1638.44H1638.44H1638.44H1638.44H1638.44H1638.44H1638.44H1638.44H1638.44H1638.45H1638.45H1638.45H1638.45H1638.45H1638.45H1638.45H1638.45H1638.45H1638.45H1638.45H1638.45H1638.45H1638.45H1638.45H1638.45H1638.45H1638.45H1638.45H1638.45H1638.45H1638.45H1638.45H1638.45H1638.45H1638.45H1638.45H1638.45H1638.45H1638.45H1638.45H1638.45H1638.45H1638.45H1638.45H1638.45H1638.45H1638.45H1638.45H1638.45H1638.45H1638.45H1638.45H1638.45H1638.45H1638.45H1638.45H1638.45H1638.45H1638.45H1638.45H1638.45H1638.45H1638.45H1638.45H1638.45H1638.45H1638.45H1638.45H1638.45H1638.45H1638.45H1638.45H1638.45H1638.45H1638.45H1638.45C1642.52 704.554 1646.33 702.968 1649.2 700.095L1649.2 700.095L1655.64 693.644L1655.64 693.643C1656.91 692.381 1656.91 690.338 1655.64 689.076L1655.64 689.075L1604.42 637.807C1604.42 637.806 1604.41 637.805 1604.41 637.805C1602.75 636.144 1601.84 633.931 1601.84 631.59C1601.84 629.247 1602.75 627.035 1604.41 625.371C1604.41 625.371 1604.41 625.371 1604.41 625.371M1726.79 630.768L1605.65 626.608L1604.41 625.371M1726.79 630.768C1729.67 633.644 1731.25 637.468 1731.25 641.554C1731.25 645.635 1729.67 649.46 1726.79 652.342L1726.78 652.342L1679.07 700.089L1679.07 700.09C1676.19 702.976 1672.37 704.559 1668.3 704.559C1666.51 704.559 1665.07 703.115 1665.07 701.326C1665.07 699.538 1666.51 698.094 1668.3 698.094C1670.64 698.094 1672.85 697.177 1674.51 695.516L1674.51 695.516L1722.22 647.774C1722.22 647.774 1722.22 647.774 1722.22 647.773C1723.89 646.109 1724.8 643.897 1724.8 641.554C1724.8 639.213 1723.89 637 1722.22 635.34C1722.22 635.339 1722.22 635.338 1722.22 635.337L1664.56 577.628L1664.56 577.628M1726.79 630.768L1664.56 577.628M1604.41 625.371L1652.12 577.629M1604.41 625.371L1652.12 577.629M1652.12 577.629C1652.13 577.629 1652.13 577.628 1652.13 577.628M1652.12 577.629L1652.13 577.628M1664.56 577.628C1661.21 574.284 1655.47 574.275 1652.13 577.628M1664.56 577.628L1652.13 577.628M1615.82 709.007L1615.83 709.01C1617.09 710.272 1617.09 712.315 1615.83 713.579L1615.83 713.579L1595.92 733.502C1595.31 734.106 1594.49 734.448 1593.64 734.448H1583.68H1581.93V736.198V746.157C1581.93 747.946 1580.49 749.39 1578.7 749.39H1568.75H1567V751.14V761.099C1567 762.887 1565.56 764.331 1563.77 764.331H1553.82H1552.07V766.081V776.041C1552.07 776.896 1551.73 777.715 1551.12 778.322L1551.12 778.323L1546.15 783.304C1546.14 783.305 1546.14 783.305 1546.14 783.305C1546.14 783.305 1546.14 783.305 1546.14 783.305C1545.54 783.908 1544.72 784.25 1543.86 784.25H1518.98C1517.2 784.25 1515.75 782.804 1515.75 781.023V756.117C1515.75 755.256 1516.09 754.437 1516.7 753.83L1516.7 753.83L1597.97 672.496L1599.01 671.452L1598.16 670.248C1596.36 667.709 1595.39 664.678 1595.39 661.488C1595.39 659.696 1596.84 658.246 1598.62 658.246C1600.41 658.246 1601.85 659.685 1601.85 661.469V661.489C1601.85 663.825 1602.75 666.033 1604.41 667.688C1604.41 667.689 1604.42 667.69 1604.42 667.691L1605.87 669.15L1605.87 669.151C1607.13 670.414 1607.13 672.462 1605.87 673.718L1605.87 673.72L1522.72 756.941L1522.2 757.453V758.178V776.036V777.786H1523.95H1541.8H1542.53L1543.04 777.273L1545.1 775.212L1545.61 774.7V773.975V761.094C1545.61 759.307 1547.06 757.862 1548.84 757.862H1558.8H1560.55V756.112V746.152C1560.55 744.364 1561.99 742.92 1563.77 742.92H1573.73H1575.48V741.17V731.211C1575.48 729.422 1576.92 727.978 1578.7 727.978H1591.58H1592.3L1592.81 727.465L1611.26 709C1611.26 709 1611.26 709 1611.26 708.999C1612.53 707.738 1614.56 707.738 1615.82 709.007ZM1692.97 626.819L1692.97 626.82C1698.35 632.193 1698.35 640.951 1692.97 646.33L1692.97 646.33C1690.37 648.938 1686.91 650.371 1683.23 650.371C1679.54 650.371 1676.08 648.938 1673.48 646.33L1673.48 646.33L1653.57 626.406L1653.57 626.406C1648.2 621.032 1648.2 612.274 1653.57 606.895L1653.57 606.894C1658.75 601.701 1667.88 601.701 1673.06 606.894L1673.07 606.895L1692.97 626.819ZM1678.04 641.756L1678.04 641.757C1680.84 644.55 1685.62 644.55 1688.41 641.757C1691.27 638.898 1691.27 634.242 1688.41 631.383C1688.41 631.383 1688.41 631.383 1688.41 631.383L1668.5 611.459L1668.5 611.459C1667.12 610.077 1665.28 609.309 1663.32 609.309C1661.36 609.309 1659.52 610.077 1658.13 611.459L1658.13 611.462C1655.28 614.324 1655.28 618.972 1658.13 621.831L1658.13 621.832L1678.04 641.756Z" fill="black" stroke="white" stroke-width="3.5"/>
<path opacity="0.15" d="M1789.41 -37.4067L1789.41 -37.4054L1747.27 21.004L1789.41 -37.4067ZM1789.41 -37.4067C1791.51 -40.3329 1794.63 -42.2599 1798.21 -42.8395C1801.77 -43.4184 1805.34 -42.5769 1808.27 -40.4665L1808.27 -40.4662L1856.62 -5.64113L1856.62 -5.64075C1859.56 -3.53093 1861.48 -0.411264 1862.06 3.14734C1862.32 4.72611 1861.25 6.21113 1859.66 6.46794C1858.08 6.72475 1856.6 5.65452 1856.34 4.07574C1856.01 2.04231 1854.9 0.259774 1853.23 -0.945842L1853.23 -0.94612L1804.88 -35.7716C1804.88 -35.7717 1804.88 -35.7718 1804.88 -35.7719C1803.21 -36.9795 1801.16 -37.4561 1799.13 -37.1267C1797.1 -36.7976 1795.31 -35.6995 1794.11 -34.0228C1794.11 -34.0223 1794.11 -34.0219 1794.11 -34.0213L1751.98 24.3861L1751.97 24.3867M1789.41 -37.4067L1751.97 24.3867M1798.68 74.6753L1798.68 74.6757C1801.61 76.7861 1805.18 77.6276 1808.75 77.0487C1812.32 76.4698 1815.44 74.5429 1817.55 71.615L1817.55 71.6146L1852.41 23.2876L1853.28 22.0725L1854.5 22.9475L1857.47 25.0832L1857.47 25.0839C1859.13 26.2823 1860.24 28.0653 1860.56 30.0898L1860.57 30.0942C1860.89 32.1223 1860.41 34.1673 1859.21 35.8356L1859.21 35.8362L1849.04 49.9267C1849.04 49.9268 1849.04 49.927 1849.04 49.9271C1848.11 51.226 1848.4 53.029 1849.7 53.9653C1849.7 53.9654 1849.7 53.9655 1849.7 53.9656L1877.44 73.9463L1877.44 73.9466C1878.74 74.883 1880.55 74.5895 1881.49 73.2907L1881.49 73.2906C1881.95 72.6427 1882.11 71.8683 1881.99 71.1353C1881.88 70.4024 1881.48 69.7187 1880.83 69.2517L1856.66 51.8391L1855.44 50.9619L1856.32 49.7446L1863.91 39.2187C1863.91 39.2186 1863.91 39.2185 1863.91 39.2184C1866.02 36.2898 1866.86 32.7292 1866.28 29.1625L1866.28 29.1623L1866.28 29.1622L1866.28 29.1622L1866.28 29.1621L1866.28 29.162L1866.28 29.1619L1866.28 29.1619L1866.28 29.1618L1866.28 29.1617L1866.28 29.1616L1866.28 29.1615L1866.28 29.1615L1866.28 29.1614L1866.28 29.1613L1866.28 29.1612L1866.28 29.1612L1866.28 29.1611L1866.28 29.161L1866.28 29.1609L1866.28 29.1608L1866.28 29.1608L1866.28 29.1607L1866.28 29.1606L1866.28 29.1605L1866.28 29.1605L1866.28 29.1604L1866.28 29.1603L1866.28 29.1602L1866.28 29.1602L1866.28 29.1601L1866.28 29.16L1866.28 29.1599L1866.28 29.1598L1866.28 29.1598L1866.28 29.1597L1866.28 29.1596L1866.28 29.1595L1866.28 29.1595L1866.28 29.1594L1866.28 29.1593L1866.28 29.1592L1866.28 29.1592L1866.28 29.1591L1866.28 29.159L1866.28 29.1589L1866.28 29.1589L1866.28 29.1588L1866.28 29.1587L1866.28 29.1586L1866.28 29.1586L1866.28 29.1585L1866.28 29.1584L1866.28 29.1583L1866.28 29.1583L1866.28 29.1582L1866.28 29.1581L1866.28 29.158L1866.28 29.1579L1866.28 29.1579L1866.28 29.1578L1866.28 29.1577L1866.28 29.1576L1866.28 29.1576L1866.28 29.1575L1866.28 29.1574L1866.28 29.1573L1866.28 29.1573L1866.28 29.1572L1866.28 29.1571L1866.28 29.157L1866.28 29.157L1866.28 29.1569L1866.28 29.1568L1866.28 29.1567L1866.28 29.1567L1866.28 29.1566L1866.28 29.1565L1866.28 29.1564L1866.28 29.1564L1866.28 29.1563L1866.28 29.1562L1866.28 29.1561L1866.28 29.1561L1866.28 29.156L1866.28 29.1559L1866.28 29.1558L1866.28 29.1558L1866.28 29.1557L1866.28 29.1556L1866.28 29.1555L1866.28 29.1555L1866.28 29.1554L1866.28 29.1553L1866.28 29.1552L1866.28 29.1552L1866.28 29.1551L1866.28 29.155L1866.28 29.1549L1866.28 29.1549L1866.28 29.1548L1866.28 29.1547L1866.28 29.1546L1866.28 29.1546L1866.28 29.1545L1866.28 29.1544L1866.28 29.1543L1866.28 29.1543L1866.28 29.1542L1866.28 29.1541L1866.28 29.154L1866.28 29.154L1866.28 29.1539L1866.28 29.1538L1866.28 29.1537L1866.28 29.1536L1866.28 29.1536L1866.28 29.1535L1866.28 29.1534L1866.28 29.1533L1866.28 29.1533L1866.28 29.1532L1866.28 29.1531L1866.28 29.153L1866.28 29.153L1866.28 29.1529L1866.28 29.1528L1866.28 29.1527L1866.28 29.1527L1866.28 29.1526L1866.28 29.1525L1866.28 29.1524L1866.28 29.1524L1866.28 29.1523L1866.28 29.1522L1866.28 29.1521L1866.28 29.152L1866.28 29.152L1866.28 29.1519L1866.28 29.1518L1866.28 29.1517L1866.28 29.1517L1866.28 29.1516L1866.28 29.1515L1866.28 29.1514L1866.28 29.1514L1866.28 29.1513L1866.28 29.1512L1866.28 29.1511L1866.28 29.1511C1865.7 25.5981 1863.77 22.491 1860.85 20.3907L1860.85 20.3904L1854.32 15.6859L1854.32 15.6855C1853.02 14.7492 1851.21 15.0427 1850.28 16.3414L1850.28 16.342L1812.84 68.2304C1812.84 68.2309 1812.84 68.2314 1812.84 68.2319L1812.84 68.2333L1811.63 67.3557L1798.68 74.6753ZM1798.68 74.6753L1750.33 39.8502C1750.33 39.8501 1750.33 39.85 1750.33 39.8499M1798.68 74.6753L1750.33 39.8499M1751.97 24.3867C1749.55 27.7543 1750.35 32.7273 1753.72 35.1558L1802.07 69.9808C1802.07 69.9809 1802.07 69.9809 1802.07 69.981L1751.97 24.3867ZM1750.33 39.8499C1744.49 35.6444 1743.07 26.8409 1747.27 21.0049L1750.33 39.8499ZM1873.27 48.2231L1873.28 48.2199C1874.21 46.9213 1876.02 46.6275 1877.32 47.5644L1877.32 47.5646L1897.5 62.0958C1897.5 62.0958 1897.5 62.096 1897.5 62.0961C1898.12 62.5439 1898.54 63.2202 1898.66 63.9794L1900.07 72.6538L1900.31 74.1345L1901.79 73.8942L1910.47 72.4861C1912.05 72.2293 1913.54 73.2995 1913.79 74.8783L1915.2 83.5527L1915.44 85.0333L1916.92 84.7931L1925.6 83.3849C1927.18 83.1281 1928.67 84.1984 1928.92 85.7771L1930.33 94.4516L1930.57 95.9322L1932.05 95.692L1940.73 94.2838C1941.49 94.161 1942.26 94.3427 1942.89 94.7931L1942.89 94.7935L1947.93 98.4257C1948.55 98.873 1948.97 99.5534 1949.1 100.309L1952.62 121.995C1952.87 123.572 1951.8 125.059 1950.22 125.315L1928.52 128.837C1927.76 128.96 1926.98 128.778 1926.36 128.328L1926.36 128.328L1843.99 69.0093L1842.97 68.2706L1842.07 69.1562C1840.1 71.0866 1837.59 72.364 1834.8 72.8165C1833.21 73.0739 1831.72 72.0006 1831.47 70.4257C1831.21 68.8431 1832.28 67.3627 1833.86 67.1065L1833.87 67.1036C1835.9 66.775 1837.68 65.6773 1838.88 64.007C1838.88 64.0062 1838.89 64.0055 1838.89 64.0047L1839.95 62.5317L1839.95 62.5311C1840.89 61.2343 1842.7 60.942 1843.99 61.8769L1844 61.8784L1928.27 122.569L1928.78 122.931L1929.39 122.832L1944.95 120.307L1946.43 120.067L1946.19 118.586L1943.67 103.033L1943.57 102.419L1943.06 102.056L1940.98 100.552L1940.47 100.189L1939.86 100.288L1928.63 102.11C1927.05 102.366 1925.57 101.293 1925.31 99.7174L1923.9 91.0433L1923.66 89.5627L1922.18 89.8029L1913.5 91.2111C1911.92 91.4679 1910.43 90.3976 1910.18 88.8189L1908.77 80.1444L1908.53 78.6638L1907.05 78.904L1898.37 80.3122C1896.79 80.569 1895.3 79.4987 1895.05 77.92L1893.23 66.7039L1893.13 66.0903L1892.62 65.727L1873.92 52.2603C1873.92 52.2602 1873.92 52.2601 1873.92 52.26C1872.63 51.324 1872.33 49.5227 1873.27 48.2231ZM1790.75 -7.38485L1790.75 -7.38527C1794.69 -12.8477 1802.35 -14.091 1807.81 -10.1533L1807.81 -10.1528C1810.46 -8.24649 1812.21 -5.42658 1812.73 -2.20215C1813.25 1.02186 1812.49 4.2486 1810.58 6.8954L1810.58 6.89591L1796.03 27.0615L1796.03 27.0619C1792.09 32.5243 1784.44 33.7676 1778.97 29.8302L1778.97 29.8295C1773.69 26.0357 1772.39 18.0496 1776.2 12.7818L1776.2 12.7807L1790.75 -7.38485ZM1805.88 3.51467L1805.88 3.51422C1807.9 0.704745 1807.23 -3.43334 1804.42 -5.45837C1801.55 -7.53054 1797.52 -6.87664 1795.44 -4.00226L1780.9 16.1629L1780.9 16.1634C1779.89 17.5534 1779.49 19.2561 1779.76 20.9517C1780.04 22.6474 1780.96 24.1345 1782.35 25.1363L1782.36 25.1384C1785.23 27.2016 1789.26 26.5507 1791.33 23.6812L1791.33 23.6802L1805.88 3.51467Z" fill="black" stroke="white" stroke-width="3"/>
<path opacity="0.15" d="M1632.47 153.241L1632.94 153.709L1633.59 153.584C1634.11 153.484 1634.65 153.43 1635.19 153.43C1637.43 153.43 1639.53 154.299 1641.11 155.882L1691.3 206.064C1691.3 206.064 1691.3 206.064 1691.3 206.065C1694.57 209.327 1694.57 214.637 1691.3 217.899L1681.9 227.299C1680.32 228.881 1678.22 229.75 1675.98 229.75C1673.74 229.75 1671.65 228.881 1670.06 227.299L1619.87 177.116C1617.83 175.08 1617.06 172.245 1617.57 169.603L1617.7 168.951L1617.23 168.482L1574.9 126.165L1574.02 125.282L1573.13 126.165L1564.93 134.365L1564.93 134.365C1564.54 134.762 1564 134.984 1563.44 134.984C1562.88 134.984 1562.34 134.761 1561.94 134.365L1558.72 131.146L1557.84 130.262L1556.96 131.146L1551.06 137.042L1550.17 137.925L1551.06 138.809L1554.28 142.029L1554.28 142.029C1554.67 142.425 1554.9 142.962 1554.9 143.523C1554.9 144.084 1554.67 144.621 1554.28 145.017L1554.28 145.017L1542.25 157.044L1542.25 157.044C1541.84 157.457 1541.3 157.663 1540.75 157.663C1540.21 157.663 1539.67 157.457 1539.26 157.044L1539.26 157.044L1515.87 133.66L1515.87 133.66C1515.47 133.264 1515.25 132.727 1515.25 132.166C1515.25 131.606 1515.47 131.068 1515.87 130.671L1527.9 118.644L1527.9 118.644C1528.72 117.819 1530.06 117.819 1530.89 118.644L1534.11 121.862L1534.99 122.746L1535.88 121.862L1541.77 115.967L1542.66 115.083L1541.77 114.199L1538.55 110.981C1537.73 110.155 1537.73 108.818 1538.55 107.992L1571.97 74.5871L1571.97 74.5868C1572.36 74.1906 1572.9 73.9678 1573.46 73.9678C1574.02 73.9678 1574.56 74.1908 1574.96 74.5871L1577.04 76.6716L1577.91 77.5415L1578.8 76.6853C1591.38 64.4916 1608.54 58.1959 1626.06 59.3946C1626.88 59.4513 1627.6 59.9858 1627.89 60.7615C1628.18 61.538 1627.99 62.4121 1627.41 62.9978L1596.27 94.1278L1595.39 95.0118L1596.27 95.8957L1598.35 97.9709C1599.17 98.7963 1599.17 100.134 1598.35 100.959L1590.14 109.159L1589.26 110.043L1590.14 110.927L1632.47 153.241ZM1618.67 65.7561L1621.04 63.3851L1617.7 63.6253C1604.3 64.5871 1591.58 70.2126 1581.81 79.6441L1580.9 80.5278L1581.8 81.4273L1591.51 91.1391L1592.4 92.0228L1593.28 91.1392L1618.67 65.7561ZM1539.87 151.676L1540.75 152.56L1541.64 151.676L1548.91 144.407L1549.79 143.523L1548.91 142.639L1530.28 124.012L1529.39 123.128L1528.51 124.012L1521.24 131.282L1520.35 132.166L1521.24 133.05L1539.87 151.676ZM1546.3 134.052L1547.18 134.936L1548.07 134.052L1553.97 128.157L1554.85 127.273L1553.97 126.389L1546.53 118.956L1545.65 118.073L1544.76 118.956L1538.87 124.852L1537.98 125.736L1538.87 126.62L1546.3 134.052ZM1562.55 128.998L1563.44 129.881L1564.32 128.998L1592.98 100.35L1593.86 99.4656L1592.98 98.5816L1574.35 79.9549L1573.46 79.0713L1572.58 79.9549L1543.92 108.603L1543.04 109.487L1543.92 110.371L1562.55 128.998ZM1587.15 113.916L1586.27 113.033L1585.39 113.916L1577.89 121.408L1577.01 122.292L1577.89 123.176L1619.05 164.327L1619.94 165.211L1620.82 164.327L1628.32 156.835L1629.2 155.951L1628.32 155.067L1587.15 113.916ZM1673.05 224.31L1673.05 224.31C1673.83 225.09 1674.88 225.522 1675.98 225.522C1677.09 225.522 1678.13 225.09 1678.91 224.31L1688.31 214.911C1689.93 213.295 1689.93 210.669 1688.31 209.053L1688.31 209.053L1638.12 158.87L1638.12 158.87C1637.34 158.09 1636.29 157.658 1635.19 157.658C1634.09 157.658 1633.04 158.089 1632.26 158.867L1632.26 158.868L1622.86 168.272L1622.86 168.273C1621.24 169.889 1621.24 172.512 1622.86 174.127L1673.05 224.31Z" fill="black" stroke="white" stroke-width="2.5"/>
<path opacity="0.15" d="M1781.35 263.681L1781.35 263.681L1770.1 275.066C1767.74 277.462 1764.77 279.292 1761.5 280.361C1758.91 281.208 1756.51 282.696 1754.58 284.664L1754.58 284.664C1751.23 288.063 1749.43 292.581 1749.5 297.393C1749.58 302.203 1751.52 306.666 1754.98 309.964C1755.39 310.352 1755.96 310.498 1756.5 310.355L1756.5 310.355C1757.03 310.212 1757.46 309.796 1757.63 309.251L1758.11 309.397L1757.63 309.251L1760.59 299.597C1761.02 298.222 1761.94 297.092 1763.2 296.421C1764.46 295.75 1765.91 295.617 1767.27 296.047C1768.63 296.478 1769.74 297.421 1770.4 298.697C1771.05 299.973 1771.19 301.435 1770.76 302.81L1767.83 312.353C1767.66 312.903 1767.79 313.501 1768.16 313.934C1768.47 314.298 1768.91 314.5 1769.38 314.5C1769.46 314.5 1769.55 314.493 1769.64 314.479L1769.64 314.479C1772.85 313.947 1775.82 312.524 1778.24 310.364C1782.5 306.559 1784.67 300.874 1784.04 295.156L1784.54 295.101L1784.04 295.156C1783.34 288.83 1785.57 282.547 1790.12 277.917L1790.12 277.917L1805.9 261.934L1781.35 263.681ZM1781.35 263.681L1785.88 259.083L1785.52 258.732L1785.88 259.083C1790.43 254.453 1792.66 248.17 1791.96 241.845C1791.33 236.126 1793.5 230.44 1797.76 226.635C1800.18 224.476 1803.15 223.053 1806.36 222.521L1806.36 222.521C1806.91 222.43 1807.47 222.634 1807.84 223.066L1807.84 223.066C1808.21 223.498 1808.34 224.097 1808.17 224.647C1808.17 224.647 1808.17 224.647 1808.17 224.647C1808.17 224.647 1808.17 224.647 1808.17 224.647L1805.24 234.19C1804.82 235.565 1804.95 237.026 1805.6 238.303C1806.26 239.579 1807.37 240.522 1808.73 240.952L1808.73 240.952C1811.54 241.843 1814.53 240.243 1815.41 237.403L1814.93 237.256L1815.41 237.403L1818.37 227.749C1818.37 227.749 1818.37 227.749 1818.37 227.749C1818.54 227.203 1818.97 226.788 1819.5 226.645L1819.51 226.645M1781.35 263.681L1819.51 226.645M1783.64 265.98L1783.64 265.978L1788.16 261.426C1788.16 261.425 1788.16 261.425 1788.16 261.425C1793.43 256.074 1795.98 248.803 1795.18 241.476C1794.67 236.835 1796.43 232.217 1799.89 229.123C1800.89 228.234 1802 227.498 1803.2 226.933L1804.22 226.449L1803.89 227.532L1802.15 233.202L1802.15 233.202C1801.46 235.425 1801.68 237.782 1802.74 239.843L1802.74 239.843C1803.8 241.904 1805.59 243.417 1807.77 244.109L1807.62 244.585L1807.77 244.109C1812.27 245.535 1817.09 242.978 1818.49 238.392C1818.49 238.392 1818.49 238.392 1818.49 238.392L1820.29 232.534L1820.62 231.467L1821.2 232.422C1822.5 234.581 1823.22 237.061 1823.26 239.66C1823.32 243.561 1821.86 247.233 1819.14 249.994L1819.14 249.994C1817.54 251.615 1815.65 252.793 1813.52 253.491L1813.36 253.016L1813.52 253.491C1809.75 254.721 1806.33 256.831 1803.61 259.592L1803.61 259.592L1787.84 275.575L1783.64 265.98ZM1783.64 265.98L1772.39 277.408C1769.67 280.168 1766.24 282.279 1762.48 283.508M1783.64 265.98L1771.78 310.551M1819.51 226.645C1820.04 226.501 1820.61 226.647 1821.02 227.036C1824.48 230.334 1826.42 234.796 1826.5 239.607C1826.57 244.418 1824.77 248.937 1821.42 252.336C1819.49 254.304 1817.09 255.791 1814.5 256.638C1811.23 257.708 1808.26 259.538 1805.9 261.934L1819.51 226.645ZM1771.78 310.551L1772.11 309.468L1773.85 303.798L1774.33 303.945L1773.85 303.798C1774.53 301.575 1774.32 299.218 1773.26 297.157C1772.2 295.095 1770.41 293.583 1768.23 292.891C1766.04 292.199 1763.73 292.412 1761.7 293.491C1759.68 294.57 1758.19 296.386 1757.5 298.608L1755.71 304.465L1755.38 305.533L1754.8 304.577C1753.49 302.418 1752.78 299.939 1752.74 297.34C1752.68 293.439 1754.14 289.766 1756.86 287.006C1758.45 285.384 1760.35 284.207 1762.48 283.508M1771.78 310.551L1772.8 310.067M1771.78 310.551L1772.8 310.067M1762.48 283.508L1762.64 283.984M1762.48 283.508C1762.48 283.508 1762.48 283.508 1762.48 283.508L1762.64 283.984M1762.64 283.984C1760.58 284.657 1758.76 285.791 1757.22 287.356C1754.59 290.021 1753.18 293.564 1753.24 297.332C1753.27 299.608 1753.84 301.785 1754.89 303.723M1762.64 283.984C1766.47 282.73 1769.97 280.577 1772.74 277.759L1754.89 303.723M1754.89 303.723L1754.75 304.172L1755.23 304.319L1755.66 304.06C1755.58 303.93 1755.5 303.8 1755.43 303.668L1757.03 298.461C1757.75 296.114 1759.33 294.192 1761.47 293.05C1763.61 291.908 1766.07 291.682 1768.38 292.414L1754.89 303.723ZM1772.8 310.067C1774 309.502 1775.11 308.766 1776.11 307.877C1779.57 304.783 1781.33 300.165 1780.82 295.524C1780.02 288.196 1782.57 280.926 1787.84 275.575L1772.8 310.067Z" fill="black" stroke="white"/>
<path opacity="0.15" d="M1871.85 485.154C1877.02 508.382 1862.35 531.417 1839.07 536.602C1815.79 541.787 1792.72 527.155 1787.55 503.927C1786.28 498.233 1787.29 490.488 1789.61 481.952C1791.93 473.45 1795.51 464.302 1799.28 455.869C1803.04 447.44 1806.97 439.748 1809.96 434.162C1811.45 431.369 1812.71 429.105 1813.59 427.539C1813.94 426.933 1814.22 426.431 1814.45 426.045C1814.81 426.301 1815.28 426.633 1815.85 427.037C1817.32 428.079 1819.42 429.596 1821.95 431.49C1827.03 435.28 1833.85 440.578 1840.84 446.613C1847.82 452.652 1854.95 459.413 1860.66 466.129C1866.38 472.872 1870.58 479.459 1871.85 485.154Z" stroke="black" stroke-width="2"/>
<path opacity="0.15" d="M1643.47 440.95L1663.67 436.659C1669.68 435.383 1673.52 429.479 1672.24 423.471L1663.66 383.067C1662.38 377.059 1656.48 373.223 1650.47 374.499L1630.27 378.789M1643.47 440.95L1623.27 445.24C1617.26 446.516 1611.36 442.68 1610.08 436.672L1601.5 396.268C1600.22 390.26 1604.06 384.355 1610.07 383.079L1630.27 378.789M1643.47 440.95L1630.27 378.789M1600.36 444.421L1589.47 393.139C1587.55 384.127 1593.31 375.27 1602.32 373.356L1653.6 362.465C1662.61 360.552 1671.47 366.306 1673.38 375.317L1684.27 426.6C1686.19 435.612 1680.43 444.468 1671.42 446.382L1620.14 457.273C1611.13 459.187 1602.27 453.433 1600.36 444.421Z" stroke="black" stroke-width="2"/>
<path opacity="0.15" d="M1352.46 95.7389L1332.2 126.651L1373.91 164.27L1393.05 153.614L1427.4 184.6L1401.14 107.47L1377.34 132.798L1352.46 95.7389Z" stroke="black" stroke-width="2"/>
<path opacity="0.15" d="M1797.68 678.176L1762.03 732.563L1835.41 798.75L1869.08 780.003L1929.52 834.52L1883.31 698.816L1841.44 743.378L1797.68 678.176Z" stroke="black" stroke-width="2"/>
<rect x="1447" y="231" width="104" height="662" fill="url(#paint0_linear)"/>
<path d="M1197 836V231H1447V836H1197Z" fill="#3678A1"/>
<path d="M1212.62 701.764L1117.35 689.705C1122.18 772.107 1133.27 944.87 1139.06 976.705C1152.73 1038.61 1181.26 1163.13 1186.09 1166.03C1192.12 1169.65 1217.44 1169.65 1223.47 1160C1222.26 1122.21 1218.41 1044.48 1212.62 1035.79C1215.83 924.857 1220.34 702.741 1212.62 701.764Z" fill="url(#paint1_linear)"/>
<path d="M1334.41 717.439L1212.62 701.765C1221.64 801.019 1216.4 845.287 1220 864.559C1220.73 868.467 1221.82 871.347 1223.47 873.449L1294.62 907.968L1334.41 717.439Z" fill="url(#paint2_linear)"/>
<path d="M1223.47 873.449L1294.62 907.968C1262.46 961.028 1189.22 1076.55 1153.53 1114.18C1142.27 1113.37 1117.35 1106.46 1117.35 1080.41C1135.14 1019.31 1180.56 890.606 1220 864.559C1220.73 868.467 1221.82 871.347 1223.47 873.449Z" fill="url(#paint3_linear)"/>
<path d="M1438.12 361.705C1404.35 326.735 1288.59 338.794 1224.68 348.441C1158.35 389.441 1139.06 642.677 1099.27 694.529C1059.47 746.381 1345.27 723.47 1345.27 723.47C1345.27 592.029 1493.59 415.97 1438.12 361.705Z" fill="url(#paint4_linear)"/>
<path d="M1262.06 560.676L1207.79 567.912V528.117L1262.06 560.676Z" fill="url(#paint5_linear)"/>
<path d="M1215.04 531.731C1219.35 550.925 1219.44 565.053 1215.04 578.764C1122.43 578.764 1098.86 553.842 1088.41 542.587C1101.18 484.042 1151.67 355.28 1195.74 350.853C1262.49 344.147 1262.52 348.084 1243.97 350.852C1220.66 408.781 1164.36 499.835 1153.93 514.402C1154.19 513.676 1153.13 514.787 1153.93 514.402C1152.62 516.23 1153.64 515.198 1153.93 514.402C1163.68 509.682 1192.69 530.203 1215.04 531.731Z" fill="url(#paint6_linear)"/>
<path fill-rule="evenodd" clip-rule="evenodd" d="M1045 391.916L1111.96 366.53L1115.9 378.392C1118.74 377.661 1121.72 377.273 1124.78 377.273C1144.65 377.273 1160.76 393.626 1160.76 413.8C1160.76 428.895 1151.74 441.851 1138.88 447.418L1143.06 459.996L1073.21 484.706L1045 391.916ZM1119.31 388.616L1135.48 437.194C1144.16 433.096 1150.18 424.162 1150.18 413.8C1150.18 399.56 1138.81 388.016 1124.78 388.016C1122.9 388.016 1121.07 388.223 1119.31 388.616Z" fill="url(#paint7_linear)"/>
<path d="M1211.41 472.647L1193.88 456.203C1197.53 447.068 1204.18 427.92 1201.55 424.412C1200.45 415.642 1198.92 396.128 1201.55 388.235C1196.8 389.332 1187.52 397.444 1188.4 421.123C1183.28 428.066 1170.86 437.786 1162.1 421.123C1155.89 410.16 1140.84 388.235 1130.32 388.235C1132.51 400.66 1136.23 426.824 1133.6 432.086C1131.41 439.394 1127.69 455.545 1130.32 461.685C1137.26 469.724 1153.33 486.241 1162.1 487.995C1169.04 488.36 1185.11 493.037 1193.88 508.824L1211.41 472.647Z" fill="url(#paint8_linear)"/>
<path d="M1240.86 560.407L1245.06 563.851C1304.26 596.853 1339.96 580.654 1365.48 546.702C1403.41 509.993 1420.64 486.312 1449.35 442.519C1463.31 425.171 1449.35 360.207 1429.91 357.404C1401.49 353.307 1401.07 374.13 1387.1 391.478C1348.91 429.006 1329.89 454.673 1296.1 503.989C1294.62 506.142 1291.91 507.115 1289.42 506.324C1254.49 495.216 1242.6 482.535 1225.58 464.802C1211.32 455.589 1205.23 462.725 1195.77 476.647C1187.04 489.494 1176.63 504.72 1188.34 514.871C1205.82 534.975 1217.64 544.702 1240.86 560.407Z" fill="url(#paint9_linear)"/>
<path d="M1374.51 327.667C1374.51 317.549 1365.67 309.703 1355.63 310.904C1325.15 318.52 1305.29 314.735 1293.41 315.882C1284.21 316.77 1269.78 321.038 1265.63 329.295C1264.2 332.153 1263.56 335.449 1263.96 338.862V353.344C1265.12 362.986 1274.14 369.671 1283.7 367.958L1360.03 357.344C1362.22 357.039 1364.39 356.369 1366.06 354.913C1370.84 350.745 1374.51 343.64 1374.51 336.726V327.667Z" fill="url(#paint10_linear)"/>
<path d="M1282.56 303.823L1356.12 277.294C1354.91 290.559 1353.22 318.053 1356.12 321.912C1352.26 336.382 1305.47 337.186 1282.56 338.794V303.823Z" fill="url(#paint11_linear)"/>
<path d="M1361.98 274.882C1387.88 256.618 1391.14 185.356 1361.98 169.97L1263.1 166.353C1244.77 191.435 1253.05 243.931 1260.69 265.235C1262.62 307.682 1276.77 321.51 1283.6 323.117C1320.26 331.8 1351.13 294.578 1361.98 274.882Z" fill="url(#paint12_linear)"/>
<path d="M1381.12 240.468C1379.91 228.008 1374.61 210.562 1363.03 240.468C1363.43 244.89 1362.79 253.492 1357 252.527C1351.21 251.562 1342.53 217.557 1338.91 200.674C1348.96 192.233 1360.62 175.11 1326.86 174.145C1313.19 179.772 1281.27 188.133 1262.94 176.557C1258.52 184.596 1250.16 205.015 1252.09 222.38C1243.65 196.655 1246.3 143.274 1324.44 135.557C1402.59 127.839 1394.79 202.282 1381.12 240.468Z" fill="#004168"/>
<path d="M1281.53 224.12C1276.28 223.782 1267.35 224.957 1260.77 228.657C1254.2 232.358 1260.05 223.912 1260.86 221.951C1266.71 220.3 1279.1 217.294 1281.85 218.478C1283.04 220.386 1284.65 224.186 1281.53 224.12Z" fill="#001826"/>
<path d="M1298.82 223.808C1305.72 222.356 1317.95 221.597 1327.79 223.808C1337.62 226.019 1327.37 219.018 1325.72 217.276C1317.44 216.913 1300.06 216.622 1296.75 218.364C1295.71 220.484 1294.68 224.539 1298.82 223.808Z" fill="#001826"/>
<path d="M1286.18 229.059C1285.77 239.51 1283.76 259.206 1278.94 266.441C1276.53 270.059 1294.62 272.471 1300.65 272.471" stroke="url(#paint13_linear)" stroke-width="3" stroke-linecap="round" stroke-linejoin="round"/>
<path d="M1308.01 294.195C1318.56 290.645 1322.9 284.029 1322.6 279.706C1319.5 281.447 1312.9 283.529 1305.83 288.688C1294.85 290.059 1288.54 293.367 1283.7 295.233C1291.58 298.032 1299.81 297.121 1308.01 294.195Z" fill="url(#paint14_linear)"/>
<path d="M1324.57 233.622C1324.72 235.446 1306.98 237.742 1300.76 236.567C1292.99 235.099 1307.73 229.83 1312.22 229.619C1315.49 229.467 1322.16 229.032 1324.57 233.622Z" fill="#001826"/>
<path d="M1263.13 235.45C1262.98 237.275 1275.09 239.307 1279.39 238.042C1284.75 236.461 1274.78 231.415 1271.71 231.271C1269.47 231.166 1264.9 230.831 1263.13 235.45Z" fill="#001826"/>
</g>
<defs>
<linearGradient id="paint0_linear" x1="1499" y1="231" x2="1499" y2="893" gradientUnits="userSpaceOnUse">
<stop stop-color="#265573"/>
<stop offset="1" stop-color="#2F698E"/>
</linearGradient>
<linearGradient id="paint1_linear" x1="1223.47" y1="689.705" x2="1117.35" y2="1167.23" gradientUnits="userSpaceOnUse">
<stop stop-color="#003657"/>
<stop offset="1" stop-color="#002033"/>
</linearGradient>
<linearGradient id="paint2_linear" x1="1334.41" y1="701.765" x2="1117.35" y2="1114.18" gradientUnits="userSpaceOnUse">
<stop stop-color="#003657"/>
<stop offset="1" stop-color="#002033"/>
</linearGradient>
<linearGradient id="paint3_linear" x1="1334.41" y1="701.765" x2="1117.35" y2="1114.18" gradientUnits="userSpaceOnUse">
<stop stop-color="#003657"/>
<stop offset="1" stop-color="#002033"/>
</linearGradient>
<linearGradient id="paint4_linear" x1="1447.76" y1="335.176" x2="1107.71" y2="723.47" gradientUnits="userSpaceOnUse">
<stop stop-color="#0098F5"/>
<stop offset="1" stop-color="#0085D6"/>
</linearGradient>
<linearGradient id="paint5_linear" x1="1234.93" y1="528.117" x2="1234.93" y2="567.912" gradientUnits="userSpaceOnUse">
<stop stop-color="#F0C275"/>
<stop offset="1" stop-color="#F5D6A3"/>
</linearGradient>
<linearGradient id="paint6_linear" x1="1236.74" y1="347.235" x2="1019.1" y2="526.954" gradientUnits="userSpaceOnUse">
<stop stop-color="#0098F5"/>
<stop offset="1" stop-color="#0085D6"/>
</linearGradient>
<linearGradient id="paint7_linear" x1="1160.76" y1="366.53" x2="1042.6" y2="482.939" gradientUnits="userSpaceOnUse">
<stop stop-color="#F55D47"/>
<stop offset="1" stop-color="#E73B23"/>
</linearGradient>
<linearGradient id="paint8_linear" x1="1130.32" y1="508.824" x2="1211.45" y2="388.261" gradientUnits="userSpaceOnUse">
<stop stop-color="#F0C275"/>
<stop offset="1" stop-color="#F5D6A3"/>
</linearGradient>
<linearGradient id="paint9_linear" x1="1455" y1="356.882" x2="1182.16" y2="573.915" gradientUnits="userSpaceOnUse">
<stop stop-color="#0098F5"/>
<stop offset="0.862204" stop-color="#007FCC"/>
</linearGradient>
<linearGradient id="paint10_linear" x1="1292.21" y1="353.264" x2="1289.44" y2="321.758" gradientUnits="userSpaceOnUse">
<stop stop-color="#0098F5"/>
<stop offset="0.601498" stop-color="#0079C2"/>
</linearGradient>
<linearGradient id="paint11_linear" x1="1319.34" y1="277.294" x2="1319.34" y2="344.823" gradientUnits="userSpaceOnUse">
<stop stop-color="#EFBE6C"/>
<stop offset="1" stop-color="#F4D29A"/>
</linearGradient>
<linearGradient id="paint12_linear" x1="1317.34" y1="166.353" x2="1317.34" y2="324.409" gradientUnits="userSpaceOnUse">
<stop stop-color="#F0C275"/>
<stop offset="1" stop-color="#F5D6A3"/>
</linearGradient>
<linearGradient id="paint13_linear" x1="1315.32" y1="234.377" x2="1274.14" y2="265.198" gradientUnits="userSpaceOnUse">
<stop stop-color="#F5D6A3" stop-opacity="0"/>
<stop offset="1" stop-color="#EDB85E"/>
</linearGradient>
<linearGradient id="paint14_linear" x1="1283.76" y1="299" x2="1281.64" y2="275.06" gradientUnits="userSpaceOnUse">
<stop stop-color="#EDB85E"/>
<stop offset="1" stop-color="#F5D6A3" stop-opacity="0"/>
</linearGradient>
</defs>
</svg>
