<svg width="84" height="84" viewBox="0 0 84 84" fill="none" xmlns="http://www.w3.org/2000/svg">
<circle cx="42" cy="42" r="41" fill="white"/>
<circle cx="42" cy="42" r="41.5" stroke="#002033" stroke-opacity="0.1"/>
<path opacity="0.3" d="M55.5121 44.9091C54.8007 43.9991 55.0042 43.5943 55.5121 42.7809C55.5213 42.7716 61.3936 34.5519 61.9987 31.7643L62.0023 31.7624C62.303 30.7466 62.0023 30 60.5484 30H55.7376C54.5129 30 53.9482 30.6407 53.6457 31.3576C53.6457 31.3576 51.1963 37.2967 47.7312 41.1466C46.6128 42.259 46.0958 42.6156 45.4853 42.6156C45.1846 42.6156 44.7171 42.259 44.7171 41.2431V31.7624C44.7171 30.5441 44.3742 30 43.3603 30H35.7957C35.0276 30 34.571 30.5683 34.571 31.0976C34.571 32.2527 36.3036 32.5183 36.4833 35.7683V42.8199C36.4833 44.365 36.2064 44.6491 35.5922 44.6491C33.9569 44.6491 29.9875 38.6859 27.6353 31.8609C27.1604 30.5367 26.6966 30.0019 25.4627 30.0019H20.6501C19.2768 30.0019 19 30.6426 19 31.3594C19 32.626 20.6354 38.9236 26.6049 47.2436C30.5834 52.9227 36.1863 56 41.2831 56C44.3467 56 44.7207 55.3166 44.7207 54.141C44.7207 48.7144 44.4439 48.2019 45.9784 48.2019C46.6898 48.2019 47.9145 48.5584 50.7746 51.2977C54.0435 54.5459 54.5807 56 56.4105 56H61.2213C62.5927 56 63.2875 55.3166 62.8879 53.9683C61.973 51.1324 55.7908 45.2991 55.5121 44.9091Z" fill="#002033"/>
</svg>
