<svg width="45" height="31" viewBox="0 0 45 31" fill="none" xmlns="http://www.w3.org/2000/svg">
<path d="M43.9126 28.9798C43.0225 30.0485 41.7036 30.6668 40.3126 30.6673H4.68764C3.29668 30.6668 1.9778 30.0485 1.08765 28.9798L18.2814 14.6548L20.0627 15.8736C21.53 16.8861 23.4703 16.8861 24.9377 15.8736L26.719 14.6548L43.9126 28.9798Z" fill="#188BD2"/>
<path d="M44.1748 2.7111L26.7186 14.6548L24.9373 15.8736C23.47 16.8861 21.5296 16.8861 20.0623 15.8736L18.281 14.6548L0.824951 2.6923C1.70333 1.42571 3.14605 0.669322 4.68747 0.667301H40.3124C41.8607 0.659127 43.3106 1.42623 44.1748 2.7111Z" fill="#64BEF6"/>
<path d="M18.2813 14.6548L1.08755 28.9798C0.383813 28.1387 -0.00123504 27.0765 8.33207e-05 25.9798V5.35485C-0.00562956 4.40361 0.282563 3.47373 0.825111 2.69238L18.2813 14.6548Z" fill="#21A3F3"/>
<path d="M45 5.35468V25.9797C45.0012 27.0764 44.6162 28.1385 43.9125 28.9796L26.7188 14.6546L44.1749 2.71094C44.7148 3.48666 45.0028 4.4096 45 5.35468Z" fill="#21A3F3"/>
</svg>
