<svg width="40" height="40" viewBox="0 0 40 40" fill="none" xmlns="http://www.w3.org/2000/svg">
<path d="M26.1091 29.2445C25.366 29.9877 24.2363 30.1832 23.2856 29.7352C17.5721 27.0428 12.9491 22.4177 10.2594 16.7028C9.81384 15.7561 10.0156 14.6307 10.7555 13.8908L12.9114 11.7349L3.10221 1.92555L1.94267 3.08501C0.543223 4.48446 -0.153496 6.43517 0.0284572 8.40588C1.57221 25.1211 14.8788 38.4278 31.594 39.9715C33.5647 40.1536 35.5154 39.4568 36.9148 38.0573L38.0743 36.8978L28.2651 27.0885L26.1091 29.2445Z" fill="#0085D6"/>
<path d="M12.9114 11.7349L14.3511 10.2952C14.9989 9.64737 14.9989 8.59698 14.3511 7.94916L6.88783 0.485861C6.24002 -0.161954 5.18963 -0.161954 4.54182 0.485861L3.10221 1.92555L12.9114 11.7349Z" fill="#0085D6"/>
<path d="M29.7048 25.6488L28.2651 27.0885L38.0743 36.8978L39.5141 35.4582C40.162 34.8103 40.162 33.7599 39.5141 33.1121L32.0509 25.6488C31.403 25.001 30.3527 25.001 29.7048 25.6488Z" fill="#0085D6"/>
</svg>
