<svg width="225" height="75" viewBox="0 0 225 75" fill="none" xmlns="http://www.w3.org/2000/svg">
<path d="M126.553 20.6629C126.698 20.6629 126.825 20.7173 126.934 20.8263C127.061 20.9352 127.124 21.0622 127.124 21.2074C127.124 21.3345 127.088 21.4797 127.015 21.6431L121.842 34.004C121.28 35.3472 120.771 36.4181 120.318 37.2168C119.864 38.0154 119.301 38.6779 118.63 39.2043C117.958 39.7307 117.15 39.9939 116.206 39.9939H115.008C114.827 39.9939 114.673 39.9304 114.546 39.8033C114.419 39.6944 114.355 39.5401 114.355 39.3404V37.7885C114.355 37.607 114.419 37.4527 114.546 37.3257C114.673 37.1986 114.827 37.1351 115.008 37.1351H115.852C116.397 37.1351 116.805 36.9808 117.078 36.6722C117.35 36.3636 117.677 35.7465 118.058 34.8208L118.357 34.0857L112.994 21.6431C112.921 21.4797 112.885 21.3526 112.885 21.2619C112.903 21.0985 112.966 20.9624 113.075 20.8535C113.184 20.7264 113.32 20.6629 113.484 20.6629H115.662C115.989 20.6629 116.225 20.8353 116.37 21.1802L119.991 30.1378L123.721 21.1802C123.848 20.8353 124.102 20.6629 124.483 20.6629H126.553ZM148.914 26.5439C148.932 26.7617 148.941 27.161 148.941 27.7418C148.941 28.3227 148.932 28.722 148.914 28.9398C148.824 30.8457 148.197 32.3522 147.036 33.4595C145.874 34.5485 144.231 35.0931 142.108 35.0931C140.002 35.0931 138.368 34.5576 137.207 33.4867C136.063 32.3976 135.428 30.9183 135.301 29.0487H132.823V34.1674C132.823 34.3489 132.76 34.5032 132.633 34.6302C132.524 34.7573 132.369 34.8208 132.17 34.8208H129.91C129.728 34.8208 129.574 34.7573 129.447 34.6302C129.32 34.5032 129.257 34.3489 129.257 34.1674V21.3163C129.257 21.1348 129.32 20.9805 129.447 20.8535C129.574 20.7264 129.728 20.6629 129.91 20.6629H132.17C132.369 20.6629 132.524 20.7264 132.633 20.8535C132.76 20.9624 132.823 21.1167 132.823 21.3163V26.1899H135.328C135.491 24.393 136.154 22.9772 137.316 21.9425C138.495 20.9079 140.093 20.3906 142.108 20.3906C144.195 20.3906 145.829 20.9442 147.008 22.0515C148.188 23.1587 148.824 24.6561 148.914 26.5439ZM145.211 28.8037C145.23 28.6222 145.239 28.2682 145.239 27.7418C145.239 27.2155 145.23 26.8615 145.211 26.68C145.157 25.5002 144.867 24.6108 144.34 24.0118C143.814 23.3946 143.07 23.0861 142.108 23.0861C141.146 23.0861 140.401 23.3946 139.875 24.0118C139.349 24.6108 139.058 25.5002 139.004 26.68L138.977 27.7418L139.004 28.8037C139.058 29.9835 139.349 30.882 139.875 31.4991C140.401 32.0981 141.146 32.3976 142.108 32.3976C143.07 32.3976 143.814 32.0981 144.34 31.4991C144.867 30.882 145.157 29.9835 145.211 28.8037ZM155.612 34.8208C155.43 34.8208 155.276 34.7573 155.149 34.6302C155.022 34.5032 154.958 34.3489 154.958 34.1674V23.5489H150.52C150.339 23.5489 150.184 23.4854 150.057 23.3583C149.93 23.2313 149.867 23.0679 149.867 22.8683V21.3163C149.867 21.1167 149.93 20.9624 150.057 20.8535C150.184 20.7264 150.339 20.6629 150.52 20.6629H162.881C163.081 20.6629 163.244 20.7264 163.371 20.8535C163.498 20.9805 163.562 21.1348 163.562 21.3163V22.8683C163.562 23.0498 163.498 23.2131 163.371 23.3583C163.244 23.4854 163.081 23.5489 162.881 23.5489H158.47V34.1674C158.47 34.3489 158.407 34.5032 158.28 34.6302C158.171 34.7573 158.017 34.8208 157.817 34.8208H155.612ZM166.374 34.8208C166.192 34.8208 166.038 34.7573 165.911 34.6302C165.784 34.5032 165.72 34.3489 165.72 34.1674V21.3163C165.72 21.1348 165.784 20.9805 165.911 20.8535C166.038 20.7264 166.192 20.6629 166.374 20.6629H168.633C168.833 20.6629 168.987 20.7264 169.096 20.8535C169.223 20.9624 169.287 21.1167 169.287 21.3163V26.1899H175.44V21.3163C175.44 21.1167 175.504 20.9624 175.631 20.8535C175.758 20.7264 175.912 20.6629 176.094 20.6629H178.353C178.553 20.6629 178.707 20.7264 178.816 20.8535C178.943 20.9624 179.007 21.1167 179.007 21.3163V34.1674C179.007 34.3489 178.943 34.5032 178.816 34.6302C178.707 34.7573 178.553 34.8208 178.353 34.8208H176.094C175.912 34.8208 175.758 34.7573 175.631 34.6302C175.504 34.5032 175.44 34.3489 175.44 34.1674V29.0487H169.287V34.1674C169.287 34.3489 169.223 34.5032 169.096 34.6302C168.987 34.7573 168.833 34.8208 168.633 34.8208H166.374ZM182.52 34.8208C182.339 34.8208 182.185 34.7573 182.058 34.6302C181.93 34.5032 181.867 34.3489 181.867 34.1674V21.3163C181.867 21.1348 181.93 20.9805 182.058 20.8535C182.185 20.7264 182.339 20.6629 182.52 20.6629H184.807C184.989 20.6629 185.143 20.7264 185.27 20.8535C185.397 20.9805 185.461 21.1348 185.461 21.3163V25.1553H188.102C189.917 25.1553 191.296 25.5909 192.24 26.4622C193.184 27.3153 193.656 28.5133 193.656 30.0561C193.656 31.6353 193.166 32.8242 192.186 33.6228C191.206 34.4215 189.772 34.8208 187.884 34.8208H182.52ZM196.107 34.8208C195.925 34.8208 195.771 34.7573 195.644 34.6302C195.517 34.5032 195.453 34.3489 195.453 34.1674V21.3163C195.453 21.1348 195.517 20.9805 195.644 20.8535C195.771 20.7264 195.925 20.6629 196.107 20.6629H198.366C198.566 20.6629 198.72 20.7264 198.829 20.8535C198.956 20.9624 199.02 21.1167 199.02 21.3163V34.1674C199.02 34.3489 198.956 34.5032 198.829 34.6302C198.72 34.7573 198.566 34.8208 198.366 34.8208H196.107ZM187.802 32.2343C188.71 32.2343 189.372 32.0709 189.79 31.7442C190.207 31.3993 190.416 30.8366 190.416 30.0561C190.416 29.2756 190.207 28.6948 189.79 28.3136C189.372 27.9324 188.71 27.7418 187.802 27.7418H185.406V32.2343H187.802ZM215.183 20.6629C215.346 20.6629 215.491 20.7264 215.619 20.8535C215.746 20.9624 215.809 21.0985 215.809 21.2619V34.1674C215.809 34.3489 215.746 34.5032 215.619 34.6302C215.491 34.7573 215.337 34.8208 215.156 34.8208H212.896C212.714 34.8208 212.56 34.7573 212.433 34.6302C212.306 34.5032 212.242 34.3489 212.242 34.1674V25.4276L205.708 34.3852C205.545 34.6756 205.3 34.8208 204.973 34.8208H202.904C202.74 34.8208 202.595 34.7663 202.468 34.6574C202.341 34.5304 202.277 34.3761 202.277 34.1946V21.3163C202.277 21.1348 202.341 20.9805 202.468 20.8535C202.595 20.7264 202.749 20.6629 202.931 20.6629H205.191C205.39 20.6629 205.545 20.7264 205.654 20.8535C205.781 20.9624 205.844 21.1167 205.844 21.3163V30.0833L212.379 21.0985C212.578 20.8081 212.823 20.6629 213.114 20.6629H215.183ZM209.193 18.8115C207.65 18.8115 206.525 18.4757 205.817 17.8041C205.109 17.1143 204.755 16.234 204.755 15.1631C204.755 15.0179 204.8 14.8999 204.891 14.8091C204.982 14.7002 205.109 14.6458 205.272 14.6458H206.824C206.988 14.6458 207.115 14.7002 207.205 14.8091C207.296 14.8999 207.342 15.0179 207.342 15.1631C207.342 16.1977 207.959 16.715 209.193 16.715C210.427 16.715 211.044 16.1977 211.044 15.1631C211.044 15.0179 211.09 14.8999 211.181 14.8091C211.271 14.7002 211.398 14.6458 211.562 14.6458H213.141C213.304 14.6458 213.431 14.7002 213.522 14.8091C213.613 14.8999 213.658 15.0179 213.658 15.1631C213.658 16.234 213.295 17.1143 212.569 17.8041C211.861 18.4757 210.736 18.8115 209.193 18.8115ZM113.457 63.8157C113.275 63.8157 113.121 63.7522 112.994 63.6252C112.867 63.5162 112.803 63.362 112.803 63.1623V58.5882C112.803 58.4067 112.867 58.2524 112.994 58.1254C113.121 57.9983 113.275 57.9348 113.457 57.9348H113.674C114.382 57.9348 114.9 57.3721 115.226 56.2467C115.553 55.1213 115.716 53.3697 115.716 50.9919V47.3163C115.716 47.1167 115.78 46.9624 115.907 46.8535C116.034 46.7264 116.188 46.6629 116.37 46.6629H126.063C126.262 46.6629 126.416 46.7264 126.525 46.8535C126.652 46.9624 126.716 47.1167 126.716 47.3163V57.9075H127.941C128.141 57.9075 128.295 57.9711 128.404 58.0981C128.531 58.207 128.595 58.3613 128.595 58.561V63.1623C128.595 63.362 128.531 63.5162 128.404 63.6252C128.295 63.7522 128.141 63.8157 127.941 63.8157H125.709C125.509 63.8157 125.346 63.7522 125.218 63.6252C125.091 63.4981 125.028 63.3438 125.028 63.1623V60.8208H116.37V63.1623C116.37 63.362 116.306 63.5162 116.179 63.6252C116.07 63.7522 115.916 63.8157 115.716 63.8157H113.457ZM123.176 57.9075V49.5489H119.147V51.3731C119.147 54.4951 118.72 56.6823 117.867 57.9348L123.176 57.9075ZM136.679 61.0931C134.555 61.0931 132.913 60.5485 131.751 59.4595C130.589 58.3522 129.963 56.8457 129.872 54.9398L129.845 53.7418L129.872 52.5439C129.963 50.6561 130.598 49.1587 131.778 48.0515C132.958 46.9442 134.592 46.3906 136.679 46.3906C138.766 46.3906 140.4 46.9442 141.58 48.0515C142.76 49.1587 143.395 50.6561 143.486 52.5439C143.504 52.7617 143.513 53.161 143.513 53.7418C143.513 54.3227 143.504 54.722 143.486 54.9398C143.395 56.8457 142.769 58.3522 141.607 59.4595C140.445 60.5485 138.803 61.0931 136.679 61.0931ZM136.679 58.3976C137.641 58.3976 138.385 58.0981 138.912 57.4991C139.438 56.882 139.728 55.9835 139.783 54.8037C139.801 54.6222 139.81 54.2682 139.81 53.7418C139.81 53.2155 139.801 52.8615 139.783 52.68C139.728 51.5002 139.438 50.6108 138.912 50.0118C138.385 49.3946 137.641 49.0861 136.679 49.0861C135.717 49.0861 134.973 49.3946 134.446 50.0118C133.92 50.6108 133.63 51.5002 133.575 52.68L133.548 53.7418L133.575 54.8037C133.63 55.9835 133.92 56.882 134.446 57.4991C134.973 58.0981 135.717 58.3976 136.679 58.3976ZM160.742 46.6629C160.887 46.6629 161.014 46.7173 161.123 46.8263C161.25 46.9352 161.314 47.0531 161.314 47.1802V60.249C161.314 60.4124 161.259 60.5485 161.15 60.6574C161.041 60.7663 160.896 60.8208 160.715 60.8208H158.373C158.192 60.8208 158.046 60.7663 157.938 60.6574C157.847 60.5485 157.801 60.4124 157.801 60.249V52.6255L154.888 57.9892C154.761 58.207 154.634 58.3704 154.507 58.4793C154.398 58.5882 154.235 58.6427 154.017 58.6427H153.118C152.919 58.6427 152.755 58.5882 152.628 58.4793C152.501 58.3704 152.383 58.207 152.274 57.9892L149.361 52.7345V60.249C149.361 60.4124 149.307 60.5485 149.198 60.6574C149.089 60.7663 148.953 60.8208 148.789 60.8208H146.448C146.266 60.8208 146.121 60.7663 146.012 60.6574C145.903 60.5485 145.849 60.4124 145.849 60.249V47.1802C145.849 47.0531 145.903 46.9352 146.012 46.8263C146.121 46.7173 146.248 46.6629 146.393 46.6629H148.68C148.989 46.6629 149.225 46.8172 149.388 47.1257L153.581 54.7492L157.774 47.1257C157.938 46.8172 158.174 46.6629 158.482 46.6629H160.742Z" fill="#002033"/>
<path d="M82.3837 36.2602L42.1919 4.52979L12.5768 27.9101M2 36.2602L12.5768 27.9101M12.5768 27.9101V71.1637H71.8069V4.52979" stroke="#0085D6" stroke-width="5.8343"/>
<path d="M57.5272 41.0198C57.5272 47.3745 48.5455 51.0677 42.1909 51.0677C35.8362 51.0677 26.8545 47.3745 26.8545 41.0198" stroke="#F55D47" stroke-width="5.8343"/>
</svg>
