<svg width="84" height="84" viewBox="0 0 84 84" fill="none" xmlns="http://www.w3.org/2000/svg">
<circle cx="42" cy="42" r="41" fill="white"/>
<circle cx="42" cy="42" r="41.5" stroke="#002033" stroke-opacity="0.1"/>
<g opacity="0.3">
<path d="M49.125 23H34.875C28.3176 23 23 28.3176 23 34.875V49.125C23 55.6824 28.3176 61 34.875 61H49.125C55.6824 61 61 55.6824 61 49.125V34.875C61 28.3176 55.6824 23 49.125 23ZM57.4375 49.125C57.4375 53.7087 53.7087 57.4375 49.125 57.4375H34.875C30.2913 57.4375 26.5625 53.7087 26.5625 49.125V34.875C26.5625 30.2913 30.2913 26.5625 34.875 26.5625H49.125C53.7087 26.5625 57.4375 30.2913 57.4375 34.875V49.125Z" fill="#002033"/>
<path d="M42 32.5C36.7536 32.5 32.5 36.7536 32.5 42C32.5 47.2464 36.7536 51.5 42 51.5C47.2464 51.5 51.5 47.2464 51.5 42C51.5 36.7536 47.2464 32.5 42 32.5ZM42 47.9375C38.7273 47.9375 36.0625 45.2728 36.0625 42C36.0625 38.7249 38.7273 36.0625 42 36.0625C45.2728 36.0625 47.9375 38.7249 47.9375 42C47.9375 45.2728 45.2728 47.9375 42 47.9375Z" fill="#002033"/>
<path d="M52.2125 33.0534C52.9116 33.0534 53.4784 32.4866 53.4784 31.7875C53.4784 31.0884 52.9116 30.5216 52.2125 30.5216C51.5134 30.5216 50.9466 31.0884 50.9466 31.7875C50.9466 32.4866 51.5134 33.0534 52.2125 33.0534Z" fill="#002033"/>
</g>
</svg>
